<?xml version="1.0" standalone="no"?>
<!DOCTYPE svg PUBLIC "-//W3C//DTD SVG 20010904//EN"
 "http://www.w3.org/TR/2001/REC-SVG-20010904/DTD/svg10.dtd">
<svg version="1.0" xmlns="http://www.w3.org/2000/svg"
 width="1101.000000pt" height="1101.000000pt" viewBox="0 0 1101.000000 1101.000000"
 preserveAspectRatio="xMidYMid meet">
<metadata>
Created by potrace 1.11, written by Peter Selinger 2001-2013
</metadata>
<g transform="translate(0.000000,1101.000000) scale(0.100000,-0.100000)"
fill="#000000" stroke="none">
<path d="M1699 10617 c-120 -137 -196 -268 -244 -414 -38 -118 -37 -113 -39
-313 -2 -197 6 -244 63 -387 67 -170 234 -398 293 -403 40 -4 44 -1 76 43 39
54 37 79 -8 127 -199 215 -284 489 -235 765 10 55 21 104 26 110 5 5 9 16 9
24 0 18 84 194 102 213 7 7 26 31 42 53 17 22 35 43 42 48 7 4 22 23 34 42 24
39 21 60 -17 105 -21 25 -32 30 -66 29 -36 -1 -47 -7 -78 -42z"/>
<path d="M3076 10629 c-40 -47 -34 -80 22 -142 158 -174 235 -374 234 -606 0
-215 -84 -435 -222 -581 -61 -65 -71 -88 -55 -125 27 -59 50 -78 90 -77 25 1
42 9 55 24 9 13 34 41 54 63 85 93 187 274 220 390 10 33 23 69 29 80 7 12 12
91 13 205 2 161 0 194 -17 252 -11 37 -20 69 -19 70 3 6 -42 114 -71 172 -51
100 -109 180 -202 277 -39 42 -95 41 -131 -2z"/>
<path d="M2055 10331 c-66 -40 -139 -154 -182 -281 -27 -82 -25 -264 4 -345
43 -122 126 -240 191 -274 31 -16 75 1 102 39 30 42 25 70 -20 120 -53 61 -92
139 -106 215 -24 133 11 261 99 364 65 75 60 128 -13 166 -37 19 -39 19 -75
-4z"/>
<path d="M2783 10331 c-30 -19 -45 -44 -48 -83 -1 -10 15 -38 36 -63 89 -107
117 -187 114 -317 -2 -46 -8 -96 -15 -109 -8 -13 -12 -25 -11 -27 6 -7 -37
-83 -69 -122 -54 -66 -62 -84 -50 -116 13 -33 45 -62 77 -70 38 -10 90 31 151
121 34 50 79 139 82 160 0 3 2 10 5 17 27 86 26 284 -4 333 -3 6 -6 16 -8 24
-8 57 -117 217 -172 253 -33 23 -49 22 -88 -1z"/>
<path d="M2425 10047 c-79 -26 -136 -102 -129 -171 4 -47 43 -108 84 -132 l30
-18 0 -318 0 -318 -57 0 c-71 -1 -168 -7 -208 -13 -120 -20 -159 -27 -235 -47
-25 -6 -53 -12 -62 -14 -10 -1 -21 -5 -24 -9 -4 -4 -17 -7 -29 -7 -12 0 -25
-3 -29 -7 -3 -4 -12 -8 -19 -9 -68 -12 -358 -144 -482 -221 -273 -168 -514
-394 -700 -658 -28 -38 -58 -86 -69 -105 -10 -19 -24 -42 -30 -50 -24 -28
-134 -265 -171 -365 -34 -90 -69 -210 -81 -275 -3 -14 -8 -34 -11 -45 -8 -24
-9 -32 -18 -110 -4 -33 -11 -64 -16 -69 -12 -13 -12 -4169 0 -4182 4 -5 16
-42 26 -83 94 -399 448 -743 865 -841 88 -20 119 -22 425 -22 182 0 340 1 353
1 l22 1 0 503 0 502 583 -2 c320 -1 587 -2 592 -2 7 -1 10 -168 10 -492 0
-270 3 -496 6 -501 5 -7 121 -11 345 -10 330 0 401 4 450 22 13 5 24 8 24 6 0
-2 30 7 68 21 37 14 80 29 96 35 47 18 163 84 234 135 200 142 381 402 438
628 4 17 9 37 11 45 2 8 5 22 5 30 0 8 6 21 12 29 8 10 12 364 13 1264 2 688
4 1251 6 1253 1 2 56 4 122 5 l120 2 23 -44 c42 -80 98 -127 211 -179 12 -5
14 -261 14 -1796 -1 -984 -2 -1794 -2 -1800 -1 -7 -248 -11 -849 -11 -889 0
-879 1 -902 -44 -8 -14 -11 -212 -12 -640 0 -555 2 -622 16 -644 l16 -25 3380
0 3380 0 17 27 c16 24 18 73 19 632 1 656 0 658 -53 683 -23 11 -449 13 -2448
12 l-2420 -1 1 1801 c2 1504 4 1802 15 1807 112 51 168 99 208 178 l21 41 140
0 140 0 1 -692 c1 -729 1 -738 11 -778 4 -14 16 -74 28 -135 91 -469 301 -866
635 -1200 55 -55 136 -129 179 -163 90 -73 250 -182 266 -182 5 0 10 -3 10 -7
0 -5 10 -13 23 -19 12 -6 72 -36 132 -67 105 -52 331 -141 389 -151 15 -3 50
-12 79 -20 139 -40 297 -57 527 -57 124 -1 248 2 275 6 253 33 520 112 742
221 103 51 97 51 153 -6 8 -9 51 -45 95 -80 44 -35 82 -67 85 -70 3 -3 30 -25
60 -50 30 -25 59 -50 63 -57 10 -17 44 -17 54 0 4 6 40 38 78 70 39 32 90 76
115 97 111 93 196 160 203 160 4 0 7 7 7 15 0 8 -4 15 -9 15 -6 0 -33 42 -62
93 -81 143 -83 147 -132 229 l-45 77 24 26 c39 42 146 176 182 229 39 57 19
58 284 -12 178 -46 208 -49 208 -21 0 4 16 43 36 86 20 43 49 105 64 138 15
33 47 100 69 149 23 49 40 94 38 100 -4 10 -75 61 -297 214 -36 25 -66 46 -68
47 -2 2 4 29 12 61 24 92 58 283 63 349 2 33 7 63 11 66 4 3 45 16 92 29 47
12 103 28 125 35 22 7 79 23 128 35 l87 23 0 104 c0 76 -3 103 -12 103 -8 0
-9 3 -3 8 13 9 19 35 7 28 -9 -5 -13 31 -28 219 -4 52 -11 84 -21 92 -8 6 -40
12 -71 12 -31 1 -70 3 -87 6 -16 2 -70 7 -120 11 -49 3 -101 8 -115 9 -14 2
-35 4 -47 4 -16 1 -23 10 -29 33 -10 40 -9 40 -17 58 -3 8 -15 43 -26 76 -11
34 -41 110 -67 169 l-47 107 129 130 c71 72 144 144 162 160 30 28 43 72 24
80 -5 2 -73 94 -151 205 -78 112 -146 205 -150 208 -5 2 -35 -8 -67 -24 -33
-16 -99 -48 -148 -71 -49 -23 -120 -56 -156 -74 l-67 -33 -60 57 c-49 46 -137
117 -275 223 -20 15 -26 -18 57 302 21 77 39 150 42 162 5 23 5 23 -207 121
-242 112 -286 130 -297 121 -6 -6 -41 -54 -78 -107 -106 -156 -182 -263 -191
-272 -5 -5 -28 -5 -54 2 -51 12 -62 14 -144 28 -94 17 -117 20 -188 27 -68 6
-76 12 -83 68 -1 6 -8 30 -15 55 -8 25 -15 50 -16 55 0 6 -4 17 -7 25 -6 16
-38 128 -41 145 -1 6 -10 40 -20 77 l-19 66 -51 -3 c-28 -2 -58 -5 -66 -7 -32
-10 -88 -18 -155 -22 -224 -16 -273 -24 -279 -44 -3 -9 -8 -51 -12 -92 -3 -41
-7 -91 -9 -110 -2 -19 -7 -78 -10 -131 -10 -148 -5 -138 -75 -158 -240 -68
-507 -200 -706 -347 l-73 -53 29 57 c25 51 98 205 225 477 23 50 56 119 72
155 17 36 48 101 68 145 21 44 57 121 80 170 24 50 60 126 80 170 37 79 70
148 160 340 26 55 58 125 72 155 14 30 72 153 129 273 57 120 104 220 104 222
0 2 25 57 56 122 31 65 73 154 94 198 99 208 150 318 150 321 0 2 25 54 56
116 l56 113 1 132 0 132 -29 28 c-16 15 -54 57 -84 92 -61 71 -81 94 -113 131
-58 66 -136 157 -152 177 l-19 22 -890 0 -891 1 -38 -29 c-21 -16 -51 -47 -67
-70 l-30 -41 0 -2027 0 -2028 -140 0 c-108 0 -140 3 -140 13 0 22 -36 85 -73
128 -20 22 -62 55 -95 72 -54 29 -68 32 -146 32 -67 0 -98 -5 -133 -21 -61
-28 -144 -111 -172 -174 l-22 -50 -112 2 c-62 1 -116 2 -122 2 -7 1 -9 247 -8
723 1 479 -2 730 -9 747 -6 14 -12 44 -15 66 -2 22 -13 81 -24 130 -11 50 -22
98 -24 108 -34 153 -158 451 -251 599 -33 54 -96 150 -106 163 -199 260 -429
474 -673 624 -148 92 -414 208 -560 246 -16 5 -34 9 -40 11 -10 3 -85 22 -120
30 -24 6 -118 23 -160 29 -78 11 -115 14 -176 14 l-67 1 0 318 0 318 29 20
c41 27 79 94 79 141 0 100 -115 190 -205 160z m3870 -718 l0 -214 -72 0 -71
-1 0 212 -1 213 67 3 c37 2 69 2 72 1 3 0 5 -97 5 -214z m271 -1 l-1 -210 -57
0 c-32 0 -64 1 -70 1 -10 1 -12 49 -10 213 l3 213 68 -3 68 -4 -1 -210z m284
197 c1 -11 2 -107 3 -213 l2 -192 -25 -1 c-27 -1 -102 -1 -110 0 -4 1 -5 426
-1 426 0 0 30 0 66 0 58 0 65 -2 65 -20z m290 -196 l0 -217 -72 2 -71 1 -1
213 c-1 118 0 214 1 215 1 1 33 2 72 2 l71 0 0 -216z m283 3 c-1 -114 -2 -209
-2 -212 -1 -3 -32 -5 -70 -5 l-70 -1 0 216 1 215 71 -3 72 -3 -2 -207z m278
209 c3 -1 6 -97 5 -214 l0 -212 -68 -1 c-40 0 -68 4 -69 11 0 5 -1 101 -2 212
l-2 202 40 3 c34 3 73 2 96 -1z m293 -383 l1 -46 -52 -4 c-81 -5 -88 0 -90 55
l-2 48 71 -3 71 -3 1 -47z m-5508 -773 l-1 -666 -24 3 -24 3 0 655 c1 360 2
658 2 663 1 4 11 7 24 7 l23 0 0 -665z m276 450 c75 -75 -30 -178 -111 -109
-36 30 -36 71 -1 109 31 33 79 34 112 0z m-783 -75 c34 -18 51 -52 51 -103 0
-85 -62 -137 -144 -122 -120 23 -128 209 -11 238 28 6 81 0 104 -13z m1156 10
c69 -26 97 -109 62 -176 -17 -32 -92 -80 -102 -64 -3 5 -12 7 -20 4 -21 -8
-80 24 -95 51 -17 31 -17 109 0 140 24 45 98 67 155 45z m-725 -1130 c0 -54
-1 -56 -33 -68 -18 -7 -45 -24 -59 -39 -44 -47 -55 -89 -53 -200 2 -93 4 -105
28 -136 15 -20 46 -43 72 -53 l46 -19 -3 -74 -3 -74 -180 1 c-99 0 -219 1
-266 1 l-87 1 3 158 c2 166 11 216 52 296 80 158 250 261 430 261 l53 0 0 -55z
m264 41 c187 -44 330 -196 362 -386 4 -22 8 -103 8 -180 l1 -140 -267 0 -268
0 0 76 c0 73 1 77 25 83 30 8 82 61 101 103 16 38 19 198 4 238 -14 36 -59 80
-95 92 -28 9 -30 13 -33 70 l-3 61 58 -3 c32 -2 80 -8 107 -14z m-167 -208
c11 -16 15 -42 14 -76 -1 -29 -3 -70 -4 -92 -3 -53 -16 -73 -53 -81 -21 -4
-37 0 -54 14 -22 18 -24 27 -25 108 -2 108 8 140 43 152 36 12 60 4 79 -25z
m536 -810 c-1 -126 -2 -233 -3 -238 -2 -6 -2 -14 0 -20 2 -14 -1 -222 -4 -270
-16 -215 -198 -448 -382 -491 -44 -10 -323 -11 -379 -1 -155 27 -309 180 -375
371 -33 98 -35 126 -29 681 l2 200 586 -1 585 -1 -1 -230z m6107 -644 c87 -22
165 -95 200 -188 29 -75 22 -200 -15 -266 -33 -61 -85 -110 -143 -137 -56 -26
-76 -30 -144 -29 -156 0 -277 102 -308 258 -34 174 76 337 251 372 45 9 97 6
159 -10z m-720 -358 c148 -25 148 -25 161 -74 66 -246 340 -405 582 -338 l47
13 42 -47 c143 -159 285 -416 323 -585 2 -8 8 -35 14 -60 8 -39 22 -114 23
-130 0 -3 6 -24 13 -47 l13 -43 -46 -1 c-26 -1 -130 -2 -232 -3 l-185 -1 -6
46 c-20 139 -92 314 -175 425 -155 208 -353 337 -609 398 -63 15 -311 16 -370
2 -16 -4 -46 -11 -65 -16 -19 -4 -63 -18 -97 -31 -35 -12 -64 -21 -67 -18 -9
10 -205 366 -208 378 -6 27 224 102 427 139 65 12 332 8 415 -7z m-926 -408
c58 -98 110 -184 117 -191 9 -11 3 -20 -27 -45 -193 -159 -316 -361 -360 -595
-12 -65 -15 -120 -11 -217 3 -71 8 -139 11 -150 10 -35 26 -99 31 -120 9 -37
83 -184 124 -244 50 -74 131 -162 192 -211 l46 -36 -21 -40 c-12 -21 -29 -50
-38 -64 -8 -14 -50 -84 -93 -157 l-77 -132 -31 22 c-62 44 -84 63 -178 157
-163 163 -271 335 -345 554 -29 85 -29 85 -1 116 79 86 121 169 138 272 23
136 -21 280 -117 387 -53 59 -53 60 3 206 73 187 201 384 335 511 52 51 180
154 190 154 4 0 55 -80 112 -177z m-4944 -50 c32 -40 27 -103 -10 -142 -17
-17 -35 -31 -40 -31 -6 0 -10 -20 -10 -44 0 -42 2 -45 38 -57 48 -16 100 -53
135 -97 26 -34 67 -148 67 -189 0 -10 12 -34 27 -52 36 -43 37 -62 7 -94 -35
-38 -94 -38 -123 -1 -28 36 -26 54 8 97 27 35 28 38 16 84 -7 26 -18 60 -24
75 -22 57 -135 146 -146 116 -3 -7 -4 -150 -3 -318 l3 -305 38 -3 c20 -2 37
-9 37 -15 0 -7 -27 -58 -61 -115 l-60 -103 -26 48 c-55 103 -83 161 -83 172 0
6 15 11 33 11 17 0 37 4 42 8 9 6 13 387 6 485 -5 66 -150 -61 -186 -162 -14
-41 -14 -43 10 -67 21 -21 24 -32 22 -91 l-2 -68 -65 -1 c-36 0 -70 3 -77 8
-7 6 -12 34 -11 73 1 61 2 63 30 69 24 5 28 10 28 40 0 56 37 139 83 188 41
42 100 78 129 78 34 0 44 32 43 128 -1 82 -3 95 -20 105 -45 25 -65 55 -65 99
0 52 19 82 68 107 33 17 39 17 79 4 24 -8 52 -26 63 -40z m5681 -442 c23 -18
23 -20 24 -252 0 -129 -1 -242 -3 -251 -8 -33 -62 -39 -95 -10 -16 14 -17 37
-16 254 l2 239 25 19 c30 25 34 25 63 1z m-199 -154 c20 -32 7 -62 -53 -121
-81 -79 -113 -146 -113 -241 0 -85 30 -160 93 -228 62 -66 130 -99 223 -105
42 -2 85 -1 95 2 10 4 18 6 18 5 0 -1 19 8 42 20 138 70 223 227 194 360 -16
76 -45 125 -111 190 -73 70 -81 117 -24 135 33 10 69 -9 123 -64 92 -94 145
-243 129 -361 -14 -107 -56 -196 -123 -264 -71 -72 -125 -104 -219 -129 -87
-24 -125 -24 -212 -1 -157 42 -267 143 -314 286 -11 35 -25 73 -30 84 -12 27
-6 119 13 181 30 104 114 222 184 259 30 16 72 12 85 -8z m-1387 -80 c66 -33
108 -79 141 -151 22 -49 27 -73 27 -138 -1 -47 -6 -84 -13 -93 -7 -8 -10 -15
-6 -15 14 0 -28 -67 -68 -108 -100 -105 -244 -128 -381 -62 -74 36 -147 134
-161 218 -3 15 -7 35 -10 44 -7 25 24 147 48 187 32 54 96 109 153 131 72 29
200 23 270 -13z m2803 -390 l183 -2 -5 -30 c-31 -178 -67 -320 -103 -405 -63
-150 -156 -300 -254 -411 l-58 -66 -68 17 c-86 21 -208 15 -240 -12 -7 -6 -13
-8 -13 -4 0 19 -133 -65 -185 -118 -62 -62 -125 -169 -125 -211 0 -13 -6 -28
-14 -34 -27 -22 -241 -54 -366 -55 -76 0 -231 13 -242 21 -5 2 -25 7 -46 9
-68 8 -313 87 -340 110 -3 2 13 32 93 175 11 19 43 77 70 127 35 65 55 91 65
88 8 -2 42 -14 75 -27 110 -40 190 -52 345 -52 280 1 556 140 744 375 107 134
206 361 206 475 0 39 2 40 52 36 24 -2 125 -5 226 -6z m-6865 -577 c27 -6 64
-17 82 -24 18 -8 35 -12 38 -10 10 10 157 -99 201 -148 69 -77 111 -173 122
-275 l4 -43 -586 0 -586 0 6 43 c22 161 121 308 258 385 27 15 48 31 48 35 0
5 4 6 8 3 5 -3 31 3 58 13 27 11 74 22 104 26 30 4 57 9 59 11 7 6 134 -4 184
-16z m6599 -503 c67 -33 112 -77 146 -142 23 -44 26 -62 27 -145 0 -90 -2 -98
-34 -155 -41 -73 -83 -110 -159 -141 -89 -36 -96 -36 -221 -10 -36 8 -119 65
-146 100 -48 63 -68 126 -69 208 0 66 5 85 33 142 37 77 93 127 173 157 74 27
177 22 250 -14z m1004 -2139 l1 -576 -3309 -1 -3308 0 0 573 c0 315 2 575 4
577 2 2 1491 4 3308 4 l3303 0 1 -577z"/>
<path d="M2123 3347 c-30 -29 -29 -62 2 -92 30 -31 65 -32 92 -2 32 35 33 51
6 85 -29 38 -67 41 -100 9z"/>
<path d="M2695 3345 c-14 -13 -25 -33 -25 -45 0 -28 43 -70 73 -70 30 0 67 39
67 71 0 31 -38 69 -69 69 -12 0 -33 -11 -46 -25z"/>
<path d="M9064 1439 c-44 -16 -49 -35 -50 -188 -1 -139 0 -146 22 -170 l24
-26 212 -1 c117 0 224 3 238 8 45 15 52 40 52 188 -1 140 -7 171 -42 186 -20
10 -432 12 -456 3z m298 -121 c45 -37 9 -92 -56 -85 -45 5 -69 -11 -64 -44 2
-18 9 -24 26 -23 12 0 22 -3 22 -8 0 -10 -41 -10 -56 0 -14 8 -10 60 5 75 7 7
34 12 63 13 49 2 67 13 68 41 0 20 -36 33 -85 31 -25 0 -48 2 -52 5 -12 13
113 7 129 -5z m18 -160 c0 -5 -18 -8 -40 -8 -22 0 -40 3 -40 8 0 4 18 7 40 7
22 0 40 -3 40 -7z"/>
<path d="M9644 1438 c-39 -18 -47 -50 -48 -189 -1 -127 0 -132 25 -162 l27
-32 216 -1 c188 0 221 2 245 17 35 21 37 32 36 197 -1 188 15 177 -263 178
-119 1 -227 -3 -238 -8z m274 -122 c66 -34 64 -119 -4 -151 -42 -20 -76 -14
-110 20 -71 71 23 178 114 131z"/>
<path d="M9840 1307 c-14 -7 -31 -25 -39 -41 -17 -37 -3 -69 40 -91 26 -14 36
-15 60 -4 35 14 49 36 49 78 0 25 -7 36 -32 51 -39 23 -45 24 -78 7z"/>
<path d="M4868 1401 c-35 -10 -38 -32 -38 -283 0 -246 0 -248 23 -261 17 -11
60 -14 182 -13 172 2 189 6 236 57 51 57 56 131 14 195 -14 21 -13 27 9 70 41
81 19 156 -63 213 -31 23 -42 24 -192 25 -87 1 -165 -1 -171 -3z m333 -120
c21 -26 19 -66 -6 -90 -12 -12 -42 -16 -140 -17 l-125 -1 0 68 0 68 126 -2
c119 -3 128 -4 145 -26z m-6 -222 c26 -26 26 -69 0 -95 -23 -23 -31 -24 -145
-24 l-120 0 0 63 c0 35 2 66 4 68 2 2 59 4 126 3 90 -1 125 -4 135 -15z"/>
<path d="M6845 1402 c-77 -8 -165 -70 -213 -152 -23 -38 -26 -56 -26 -125 0
-92 18 -137 81 -200 62 -62 110 -78 238 -80 128 -2 137 0 154 26 10 17 9 25
-4 45 -15 23 -20 24 -123 24 -126 0 -173 17 -217 75 -61 80 -38 208 48 262 37
23 53 26 156 30 98 3 119 6 135 23 18 18 18 20 2 44 -9 14 -24 26 -34 27 -63
3 -172 4 -197 1z"/>
<path d="M8573 1399 c-58 -12 -101 -49 -125 -109 -17 -42 -15 -78 8 -121 37
-73 79 -91 214 -95 58 -1 108 -3 112 -3 18 -2 38 -36 38 -66 0 -58 -21 -65
-202 -65 l-157 0 -16 -29 c-14 -28 -14 -31 9 -49 22 -16 42 -18 188 -17 141 1
167 3 195 20 45 27 75 71 81 121 6 56 -2 86 -34 124 -45 52 -77 63 -200 64
-125 2 -144 10 -144 60 0 65 23 74 202 73 157 0 178 6 178 48 0 42 -21 48
-175 49 -79 1 -157 -2 -172 -5z"/>
<path d="M4118 1383 c-8 -10 -22 -36 -30 -58 -40 -98 -121 -294 -137 -330 -10
-22 -24 -57 -32 -78 -13 -36 -12 -40 8 -56 19 -16 45 -17 230 -16 114 2 210 3
213 4 3 0 11 10 17 20 12 20 7 40 -27 116 -10 22 -36 85 -106 257 -25 62 -52
123 -60 136 -17 26 -55 29 -76 5z m152 -435 c0 -5 -54 -8 -120 -8 l-120 0 18
38 c10 20 38 86 62 145 l43 109 58 -139 c33 -76 59 -141 59 -145z"/>
<path d="M5937 1348 c-14 -29 -50 -114 -80 -188 -30 -74 -67 -161 -81 -194
-52 -118 -47 -121 208 -122 113 0 211 4 224 9 19 9 27 24 24 47 -1 6 -116 287
-141 343 -10 23 -25 58 -32 77 -22 61 -39 80 -69 80 -25 0 -32 -7 -53 -52z
m73 -163 c5 -11 19 -45 31 -75 12 -30 33 -79 46 -108 14 -30 22 -56 20 -58 -2
-3 -56 -3 -120 -2 l-115 3 52 125 c29 69 57 134 61 145 6 16 8 17 12 5 2 -8 8
-24 13 -35z"/>
<path d="M7529 1379 c-7 -13 -11 -80 -11 -180 1 -139 3 -164 22 -206 26 -58
52 -87 109 -121 36 -21 56 -25 115 -25 81 0 129 23 181 85 51 61 58 89 59 266
2 176 -4 202 -48 202 -45 0 -51 -21 -51 -194 -1 -149 -3 -165 -23 -198 -24
-39 -74 -68 -118 -68 -15 0 -47 9 -70 20 -66 33 -75 61 -76 253 -1 135 -4 164
-17 174 -25 19 -59 15 -72 -8z"/>
<path d="M9715 1002 c-111 -7 -120 -24 -119 -199 2 -135 9 -164 45 -184 32
-17 440 -15 467 2 32 20 38 52 37 197 0 127 -2 133 -25 156 -24 24 -30 25
-195 28 -93 2 -188 2 -210 0z m206 -121 c21 -16 22 -22 11 -45 -9 -20 -9 -32
0 -52 11 -23 10 -29 -11 -45 -61 -50 -182 6 -129 59 9 9 9 15 0 24 -17 17 -15
38 5 60 22 25 93 24 124 -1z"/>
<path d="M9809 871 l-24 -21 24 -20 c14 -12 31 -18 42 -15 11 4 19 2 19 -4 0
-6 -15 -11 -34 -11 -40 0 -54 -29 -26 -55 18 -17 76 -18 98 -2 19 15 14 48 -8
54 -11 3 -20 9 -20 13 0 4 9 10 20 13 22 6 28 41 9 53 -28 17 -76 15 -100 -5z"/>
<path d="M9037 971 c-23 -28 -24 -34 -23 -171 1 -134 2 -142 25 -166 17 -17
34 -24 65 -25 22 0 123 0 224 -1 190 0 201 2 223 45 9 16 13 142 10 270 -1 15
-12 39 -26 52 l-24 25 -225 0 -224 0 -25 -29z m247 -159 c1 -45 -2 -82 -6 -82
-5 0 -8 33 -8 73 0 67 -2 75 -22 85 -22 11 -22 11 6 8 l30 -2 0 -82z"/>
<path d="M3935 715 c-24 -23 -25 -30 -25 -148 0 -177 -14 -169 264 -169 236
-1 256 3 276 53 7 17 11 68 8 134 -3 103 -4 108 -31 131 -28 24 -30 24 -248
24 l-220 0 -24 -25z m285 -95 c0 -19 -28 -28 -43 -13 -5 5 18 23 41 32 1 1 2
-8 2 -19z m-85 -10 c3 -6 -4 -10 -17 -10 -18 0 -20 2 -8 10 19 12 18 12 25 0z
m0 -60 c3 -5 -3 -10 -14 -10 -12 0 -21 5 -21 10 0 6 6 10 14 10 8 0 18 -4 21
-10z m85 -12 c0 -21 -4 -22 -32 -7 -14 8 -17 13 -9 18 21 13 41 8 41 -11z"/>
<path d="M4606 715 c-25 -23 -26 -27 -26 -144 0 -111 2 -122 23 -147 l23 -26
1065 0 c585 0 1085 1 1112 1 42 1 49 4 67 33 17 28 20 51 20 143 -1 114 -6
132 -47 153 -16 9 -303 12 -1116 12 l-1094 0 -27 -25z m1784 -127 c0 -5 -308
-8 -685 -8 -377 0 -685 3 -685 8 0 4 308 7 685 7 377 0 685 -3 685 -7z"/>
<path d="M7063 728 c-33 -16 -45 -58 -46 -165 0 -104 8 -134 45 -154 30 -16
436 -16 466 0 35 19 42 44 42 156 0 106 -8 138 -39 162 -21 16 -435 17 -468 1z"/>
<path d="M7763 728 c-12 -6 -26 -22 -32 -37 -12 -32 -12 -230 0 -253 19 -36
47 -40 272 -41 l221 0 23 29 c21 27 23 39 23 145 0 112 -1 117 -26 143 l-27
26 -216 -1 c-129 0 -225 -5 -238 -11z"/>
<path d="M8444 728 c-36 -17 -45 -53 -43 -169 1 -99 3 -111 25 -134 16 -18 34
-25 61 -26 259 -4 401 -1 421 10 34 18 44 48 44 130 0 147 0 150 -28 176 -27
25 -27 25 -243 24 -127 0 -225 -5 -237 -11z"/>
<path d="M1866 1910 c-23 -26 -24 -29 -26 -230 -1 -113 -2 -209 -2 -215 0 -5
0 -50 1 -100 0 -49 0 -97 0 -105 0 -8 0 -69 0 -135 0 -66 0 -127 0 -135 0 -8
0 -55 0 -105 0 -49 0 -97 0 -105 0 -8 0 -69 0 -135 0 -66 0 -127 0 -135 0 -8
0 -52 1 -97 1 -45 0 -86 -3 -90 -3 -5 1 -23 8 -41 l14 -32 599 0 c568 0 600 1
615 18 16 17 17 88 17 813 l0 795 -30 29 -30 28 -570 1 -570 1 -24 -25z m488
-717 l1 -92 -188 2 -189 2 1 88 c0 48 0 88 1 90 0 1 84 3 187 2 l187 0 0 -92z
m583 0 l0 -92 -182 1 -183 1 0 91 -1 91 183 0 183 0 0 -92z"/>
</g>
</svg>
