<?xml version="1.0" encoding="utf-8"?>
<!DOCTYPE svg PUBLIC "-//W3C//DTD SVG 1.1//EN" "http://www.w3.org/Graphics/SVG/1.1/DTD/svg11.dtd">
<svg xmlns="http://www.w3.org/2000/svg" xmlns:xlink="http://www.w3.org/1999/xlink" class="icon" version="1.1" id="Layer_1" x="0px" y="0px" width="800px" height="600px" viewBox="250 120 230 280"  xml:space="preserve">
<path fill-rule="evenodd" clip-rule="evenodd" d="M355.729,259.38c1.991,0,3.787-0.028,5.581,0.031  c0.267,0.009,0.626,0.383,0.761,0.672c0.978,2.103,2.546,3.587,4.704,4.362c0.708,0.256,0.895,0.525,0.895,1.25  c-0.021,28.199-0.019,56.398-0.019,84.598c0,0.338,0,0.677,0,1.06c-0.557,0-0.953,0-1.35,0c-12.8,0-25.6-0.001-38.399,0.001  c-1.909,0.001-2.591,0.685-2.591,2.585c-0.002,9.16-0.002,18.319,0,27.479c0,2.008,0.353,2.357,2.359,2.357  c52.959,0,105.919,0,158.88,0c2.125,0,2.5-0.373,2.5-2.496c0-8.921-0.002-17.841-0.002-26.761c0.002-2.619-0.537-3.166-3.131-3.166  c-37.879,0-75.759,0-113.639,0c-0.384,0-0.768,0-1.145,0c-0.045-0.262-0.082-0.376-0.082-0.489  c0.004-28.16,0.011-56.319,0.016-84.479c0-0.359-0.091-0.74,0-1.073c0.079-0.287,0.307-0.668,0.555-0.754  c2.369-0.814,4.039-2.345,5.032-4.646c0.099-0.229,0.45-0.488,0.688-0.492c2.067-0.039,4.137-0.022,6.33-0.022  c0,0.553,0,0.983,0,1.413c0,9.239-0.034,18.479,0.024,27.72c0.015,2.339,0.196,4.693,0.519,7.011  c0.813,5.845,2.47,11.455,5.17,16.721c7.174,13.99,18.27,23.395,33.208,28.268c6.717,2.19,13.648,2.602,20.623,2.158  c7.301-0.465,14.178-2.603,20.65-6.002c0.795-0.418,1.293-0.405,1.984,0.194c2.23,1.938,4.531,3.8,6.807,5.688  c1.691,1.404,1.699,1.408,3.393,0.008c2.855-2.358,5.703-4.727,8.484-7.034c-1.934-3.348-3.859-6.684-5.736-9.932  c1.852-2.429,3.623-4.789,5.459-7.1c0.182-0.229,0.777-0.284,1.127-0.199c2.906,0.708,5.809,1.429,8.688,2.235  c0.816,0.229,1.137,0.015,1.461-0.7c1.527-3.383,3.088-6.752,4.678-10.106c0.338-0.711,0.281-1.116-0.408-1.58  c-2.486-1.672-4.92-3.425-7.395-5.115c-0.588-0.401-0.766-0.707-0.598-1.525c0.672-3.232,1.135-6.507,1.734-9.756  c0.063-0.338,0.455-0.778,0.783-0.876c2.861-0.856,5.734-1.687,8.627-2.43c0.895-0.229,1.273-0.566,1.176-1.52  c-0.363-3.573-0.719-7.149-0.982-10.731c-0.08-1.061-0.455-1.469-1.502-1.54c-3.029-0.206-6.053-0.518-9.082-0.727  c-0.682-0.048-0.93-0.323-1.15-0.926c-1.098-2.993-2.219-5.977-3.41-8.933c-0.262-0.648-0.154-0.987,0.303-1.441  c2.266-2.257,4.52-4.528,6.723-6.847c0.254-0.266,0.381-1.008,0.197-1.276c-2.17-3.164-4.418-6.273-6.621-9.413  c-0.426-0.606-0.797-0.683-1.488-0.344c-2.975,1.458-5.98,2.858-9.002,4.218c-0.305,0.138-0.898-0.009-1.186-0.238  c-2.432-1.943-4.816-3.945-7.236-5.904c-0.439-0.357-0.662-0.62-0.48-1.274c0.867-3.115,1.584-6.273,2.492-9.375  c0.309-1.055-0.045-1.425-0.895-1.81c-3.273-1.479-6.543-2.97-9.777-4.534c-0.838-0.405-1.268-0.271-1.768,0.466  c-1.838,2.712-3.713,5.4-5.625,8.062c-0.203,0.282-0.762,0.515-1.104,0.458c-3.33-0.561-6.648-1.188-10.154-1.83  c-0.922-3.316-1.939-6.875-2.885-10.453c-0.207-0.791-0.578-1.086-1.34-0.949c-0.822,0.149-1.637,0.379-2.465,0.463  c-2.625,0.266-5.252,0.486-7.879,0.71c-1.652,0.141-1.826,0.305-1.951,1.925c-0.223,2.91-0.5,5.817-0.66,8.73  c-0.059,1.065-0.488,1.499-1.492,1.772c-5.198,1.418-10.046,3.644-14.572,6.563c-1.375,0.887-2.705,1.843-4.09,2.79  c-0.024-0.138-0.048-0.183-0.035-0.21c4.115-8.74,8.238-17.475,12.349-26.217c7.153-15.21,14.299-30.424,21.44-45.641  c0.148-0.317,0.275-0.679,0.281-1.022c0.029-1.719,0.031-3.44-0.004-5.159c-0.006-0.322-0.146-0.707-0.355-0.948  c-2.773-3.202-5.594-6.365-8.344-9.586c-0.578-0.678-1.158-0.916-2.031-0.914c-13.279,0.026-26.559,0.019-39.839,0.019  c-2.718,0-4.834,2.138-4.834,4.882c0,31.479-0.002,62.959-0.003,94.439c0,0.418,0,0.837,0,1.268c-2.341,0-4.49,0-6.633,0  c-0.183-0.452-0.335-0.86-0.511-1.259c-2.03-4.61-7.691-5.902-11.516-3.358c-1.394,0.927-2.44,2.158-3.029,3.765  c-0.128,0.349-0.503,0.848-0.782,0.86c-1.785,0.079-3.574,0.04-5.471,0.04c0-0.528,0-0.917,0-1.307c0-8.28,0.044-16.561-0.021-24.84  c-0.028-3.496,0.363-7.01-0.57-10.483c-0.765-2.847-1.084-5.822-1.954-8.631c-3.113-10.055-8.703-18.553-16.722-25.371  c-9.647-8.204-20.774-12.783-33.507-13.241c-0.225-0.008-0.448-0.078-0.689-0.122c0-4.658,0.015-9.256-0.014-13.854  c-0.005-0.842,0.127-1.418,0.914-1.974c1.253-0.887,2.043-2.185,1.679-3.828c-0.37-1.671-1.913-3.075-3.445-3.284  c-1.799-0.246-3.534,0.885-4.283,2.789c-0.584,1.487,0.01,3.396,1.597,4.367c0.838,0.513,0.964,1.088,0.957,1.933  c-0.03,3.6-0.013,7.2-0.013,10.799c0,1.027,0,2.055,0,3.106c-0.284,0.034-0.437,0.071-0.589,0.068  c-5.331-0.132-10.467,0.976-15.482,2.619c-10.292,3.373-18.844,9.325-25.699,17.71c-5.267,6.443-8.899,13.715-10.8,21.809  c-0.659,2.804-1.38,5.686-1.389,8.534c-0.099,31.279-0.049,62.559-0.091,93.839c-0.003,2.048,0.312,3.991,0.843,5.939  c1.679,6.15,5.03,11.208,10.083,15.057c4.413,3.359,9.356,5.516,15.006,5.599c4.519,0.066,9.041-0.019,13.56,0.041  c1.092,0.014,1.334-0.351,1.328-1.379c-0.041-7.16-0.021-14.32-0.021-21.479c0-0.428,0-0.854,0-1.228c9.604,0,19.063,0,28.546,0  c0,7.517,0,14.95,0,22.383c0,1.675,0.002,1.677,1.628,1.677c4.48,0.001,8.96,0.006,13.44-0.009c0.757-0.003,1.529-0.016,2.269-0.154  c7.25-1.353,13.247-4.845,17.697-10.753c3.692-4.901,5.761-10.407,5.751-16.641c-0.031-18.12-0.011-36.24-0.011-54.36  C355.729,260.407,355.729,259.977,355.729,259.38z"/>
<path fill-rule="evenodd" clip-rule="evenodd" d="M285.987,363.856c0,6.079-0.003,12.158,0.002,18.237  c0.001,1.391,0.3,1.68,1.696,1.681c8.759,0.003,17.518,0.002,26.276,0c1.593,0,1.967-0.378,1.967-1.974  c0.001-11.959,0.001-23.917,0-35.876c0-1.617-0.86-2.5-2.446-2.501c-8.399-0.002-16.798-0.001-25.197,0  c-1.618,0-2.298,0.685-2.299,2.314C285.985,351.778,285.987,357.817,285.987,363.856z"/>
<path fill-rule="evenodd" clip-rule="evenodd" d="M326.104,152.65c0.119-0.014,0.238-0.028,0.356-0.042  c-0.306-1.983-0.508-3.989-0.937-5.945c-1.064-4.858-3.545-8.955-7.168-12.315c-0.426-0.396-1.771-0.392-2.261-0.015  c-1.514,1.165-1.434,2.23,0.009,3.7c3.322,3.383,5.174,7.511,5.605,12.151c0.59,6.357-1.075,12.085-5.625,16.787  c-0.33,0.341-0.614,0.739-0.857,1.148c-0.513,0.863-0.002,2.33,1.05,3.115c0.562,0.419,1.759,0.111,2.387-0.603  c0.554-0.629,1.14-1.231,1.679-1.873c2.952-3.518,4.811-7.579,5.721-12.046C326.33,155.41,326.104,154.007,326.104,152.65z"/>
<path fill-rule="evenodd" clip-rule="evenodd" d="M284.422,133.745c-0.435,0.264-0.929,0.464-1.29,0.805  c-0.635,0.602-1.201,1.279-1.775,1.942c-5.223,6.024-6.456,13.2-5.384,20.75c0.77,5.422,3.744,9.941,7.58,13.837  c0.172,0.175,0.478,0.257,0.735,0.301c1.423,0.243,1.771-1.03,2.338-1.828c0.64-0.902-0.084-1.643-0.713-2.283  c-6.451-6.571-7.869-17.002-3.288-24.984c0.942-1.643,2.265-3.067,3.408-4.596c0.473-0.632,1.147-1.257,0.617-2.125  C286.171,134.782,285.782,133.789,284.422,133.745z"/>
<path fill-rule="evenodd" clip-rule="evenodd" d="M286.238,152.78c-0.068,3.725,1.508,7.109,4.277,9.982  c1.107,1.149,2.066,1.103,3.153-0.035c0.943-0.987,0.894-1.77-0.188-3.015c-3.844-4.421-3.826-10.004,0.047-14.372  c1.063-1.199,1.079-2.133,0.053-3.124c-1.066-1.029-2.026-0.983-3.182,0.231C287.737,145.244,286.227,148.531,286.238,152.78z"/>
<path fill-rule="evenodd" clip-rule="evenodd" d="M315.635,153.034c0.008-4.043-1.618-8.042-4.171-10.586  c-0.617-0.615-1.269-1.261-2.291-0.875c-1.78,0.672-2.169,2.253-0.909,3.689c3.909,4.456,3.909,10.221,0.001,14.543  c-1.016,1.124-1.018,2.173-0.004,3.142c1.027,0.982,1.882,0.977,3.004-0.144C314.078,159.994,315.458,156.555,315.635,153.034z"/>
<path fill-rule="evenodd" clip-rule="evenodd" d="M355.729,259.38c0,0.597,0,1.027,0,1.457c0,18.12-0.02,36.24,0.011,54.36  c0.01,6.233-2.059,11.739-5.751,16.641c-4.451,5.908-10.447,9.4-17.697,10.753c-0.74,0.139-1.512,0.151-2.269,0.154  c-4.48,0.015-8.96,0.01-13.44,0.009c-1.625,0-1.627-0.002-1.628-1.677c-0.001-7.433,0-14.866,0-22.383c-9.482,0-18.942,0-28.546,0  c0,0.373,0,0.8,0,1.228c0,7.159-0.02,14.319,0.021,21.479c0.006,1.028-0.236,1.393-1.328,1.379c-4.519-0.06-9.041,0.025-13.56-0.041  c-5.65-0.083-10.594-2.239-15.006-5.599c-5.054-3.849-8.404-8.906-10.083-15.057c-0.532-1.948-0.846-3.892-0.843-5.939  c0.042-31.28-0.008-62.56,0.091-93.839c0.009-2.849,0.73-5.73,1.389-8.534c1.901-8.094,5.534-15.366,10.8-21.809  c6.854-8.385,15.407-14.337,25.699-17.71c5.015-1.644,10.151-2.751,15.482-2.619c0.152,0.003,0.305-0.034,0.589-0.068  c0-1.051,0-2.079,0-3.106c0-3.6-0.018-7.2,0.013-10.799c0.007-0.845-0.118-1.42-0.957-1.933c-1.586-0.971-2.181-2.88-1.597-4.367  c0.749-1.904,2.484-3.035,4.283-2.789c1.533,0.209,3.075,1.613,3.445,3.284c0.364,1.644-0.426,2.941-1.679,3.828  c-0.787,0.556-0.919,1.132-0.914,1.974c0.029,4.598,0.014,9.196,0.014,13.854c0.242,0.044,0.464,0.114,0.689,0.122  c12.732,0.458,23.86,5.038,33.507,13.241c8.019,6.818,13.608,15.316,16.722,25.371c0.87,2.809,1.189,5.784,1.954,8.631  c0.933,3.473,0.542,6.987,0.57,10.483c0.066,8.279,0.021,16.56,0.021,24.84c0,0.39,0,0.779,0,1.307c1.897,0,3.687,0.039,5.471-0.04  c0.279-0.012,0.654-0.511,0.782-0.86c0.589-1.607,1.636-2.837,3.029-3.765c3.825-2.544,9.485-1.252,11.516,3.358  c0.176,0.398,0.328,0.807,0.511,1.259c2.143,0,4.292,0,6.633,0c0-0.431,0-0.849,0-1.268c0.001-31.48,0.003-62.96,0.003-94.439  c0-2.745,2.116-4.882,4.834-4.882c13.28,0,26.561,0.008,39.839-0.019c0.873-0.001,1.453,0.236,2.031,0.914  c2.75,3.222,5.57,6.384,8.344,9.586c0.209,0.242,0.35,0.626,0.355,0.948c0.035,1.719,0.033,3.44,0.004,5.159  c-0.006,0.343-0.133,0.705-0.281,1.022c-7.141,15.216-14.287,30.43-21.44,45.641c-4.11,8.742-8.233,17.477-12.349,26.217  c-0.013,0.027,0.011,0.072,0.035,0.21c1.385-0.947,2.715-1.903,4.09-2.79c4.525-2.919,9.374-5.145,14.572-6.563  c1.004-0.274,1.434-0.708,1.492-1.772c0.16-2.914,0.438-5.82,0.66-8.73c0.125-1.62,0.299-1.784,1.951-1.925  c2.627-0.224,5.254-0.444,7.879-0.71c0.828-0.083,1.643-0.314,2.465-0.463c0.762-0.137,1.133,0.159,1.34,0.949  c0.945,3.578,1.963,7.137,2.885,10.453c3.506,0.642,6.824,1.27,10.154,1.83c0.342,0.057,0.9-0.176,1.104-0.458  c1.912-2.662,3.787-5.35,5.625-8.062c0.5-0.738,0.93-0.872,1.768-0.466c3.234,1.564,6.504,3.055,9.777,4.534  c0.85,0.384,1.203,0.755,0.895,1.81c-0.908,3.102-1.625,6.26-2.492,9.375c-0.182,0.654,0.041,0.917,0.48,1.274  c2.42,1.959,4.805,3.961,7.236,5.904c0.287,0.229,0.881,0.376,1.186,0.238c3.021-1.36,6.027-2.76,9.002-4.218  c0.691-0.339,1.063-0.262,1.488,0.344c2.203,3.14,4.451,6.249,6.621,9.413c0.184,0.268,0.057,1.01-0.197,1.276  c-2.203,2.319-4.457,4.59-6.723,6.847c-0.457,0.454-0.564,0.793-0.303,1.441c1.191,2.956,2.313,5.939,3.41,8.933  c0.221,0.603,0.469,0.878,1.15,0.926c3.029,0.209,6.053,0.521,9.082,0.727c1.047,0.071,1.422,0.479,1.502,1.54  c0.264,3.582,0.619,7.158,0.982,10.731c0.098,0.953-0.281,1.29-1.176,1.52c-2.893,0.743-5.766,1.573-8.627,2.43  c-0.328,0.098-0.721,0.538-0.783,0.876c-0.6,3.249-1.063,6.523-1.734,9.756c-0.168,0.818,0.01,1.124,0.598,1.525  c2.475,1.69,4.908,3.443,7.395,5.115c0.689,0.464,0.746,0.869,0.408,1.58c-1.59,3.354-3.15,6.724-4.678,10.106  c-0.324,0.715-0.645,0.93-1.461,0.7c-2.879-0.807-5.781-1.527-8.688-2.235c-0.35-0.085-0.945-0.03-1.127,0.199  c-1.836,2.311-3.607,4.671-5.459,7.1c1.877,3.248,3.803,6.584,5.736,9.932c-2.781,2.308-5.629,4.676-8.484,7.034  c-1.693,1.4-1.701,1.396-3.393-0.008c-2.275-1.888-4.576-3.749-6.807-5.688c-0.691-0.6-1.189-0.612-1.984-0.194  c-6.473,3.399-13.35,5.537-20.65,6.002c-6.975,0.443-13.906,0.032-20.623-2.158c-14.938-4.873-26.034-14.277-33.208-28.268  c-2.7-5.266-4.356-10.876-5.17-16.721c-0.322-2.317-0.504-4.672-0.519-7.011c-0.059-9.24-0.024-18.48-0.024-27.72  c0-0.43,0-0.86,0-1.413c-2.193,0-4.263-0.017-6.33,0.022c-0.238,0.004-0.59,0.264-0.688,0.492c-0.993,2.301-2.663,3.831-5.032,4.646  c-0.249,0.086-0.476,0.467-0.555,0.754c-0.091,0.333,0,0.714,0,1.073c-0.005,28.16-0.012,56.319-0.016,84.479  c0,0.113,0.037,0.228,0.082,0.489c0.377,0,0.761,0,1.145,0c37.879,0,75.76,0,113.639,0c2.594,0,3.133,0.547,3.131,3.166  c0,8.92,0.002,17.84,0.002,26.761c0,2.123-0.375,2.496-2.5,2.496c-52.961,0-105.92,0-158.88,0c-2.006,0-2.358-0.35-2.359-2.357  c-0.001-9.16-0.001-18.319,0-27.479c0-1.9,0.682-2.584,2.591-2.585c12.8-0.002,25.6-0.001,38.399-0.001c0.396,0,0.793,0,1.35,0  c0-0.383,0-0.722,0-1.06c0-28.199-0.002-56.398,0.019-84.598c0-0.725-0.186-0.994-0.895-1.25c-2.158-0.775-3.726-2.26-4.704-4.362  c-0.135-0.289-0.495-0.663-0.761-0.672C359.516,259.352,357.72,259.38,355.729,259.38z M486.537,353.921  c-52.98,0-105.873,0-158.737,0c0,9.261,0,18.438,0,27.615c52.953,0,105.817,0,158.737,0  C486.537,372.326,486.537,363.181,486.537,353.921z M286.726,224.352c-0.014,0.225-0.033,0.415-0.035,0.604  c-0.051,4.876-0.08,9.752-0.158,14.627c-0.056,3.535,0.751,6.818,2.752,9.753c2.308,3.384,5.417,5.356,9.638,5.284  c1-0.017,2.002-0.039,2.998,0.021c5.915,0.351,9.705-3.449,11.631-7.798c0.527-1.189,1.064-2.5,1.086-3.764  c0.111-6.213,0.05-12.429,0.05-18.729C305.458,224.352,296.12,224.352,286.726,224.352z M424.92,307.214  c-12.993-9.721-13.323-28.546-0.008-38.541c-1.85-3.098-3.701-6.196-5.552-9.296c-6.081,3.692-11.814,11.559-13.686,18.642  c-0.177,0.667-0.341,1.156,0.295,1.784c4.745,4.692,4.695,11.61-0.01,16.38c-0.279,0.283-0.435,0.912-0.339,1.306  c0.879,3.605,2.505,6.889,4.569,9.95c2.434,3.61,5.466,6.637,9.149,9.129C421.211,313.431,423.045,310.355,424.92,307.214z   M473.275,285.452c-0.143-0.747-0.24-1.294-0.35-1.839c-0.119-0.588-0.266-1.17-0.365-1.76c-1.178-6.845-4.195-12.758-8.941-17.815  c-0.453-0.481-0.797-0.537-1.436-0.354c-6.152,1.767-12.684-2.037-14.273-8.202c-0.117-0.447-0.697-0.998-1.15-1.096  c-1.789-0.388-3.604-0.737-5.426-0.876c-3.926-0.3-7.822,0.019-11.615,1.118c-2.045,0.593-4.039,1.364-6.145,2.084  c1.77,3.199,3.377,6.141,5.045,9.047c0.133,0.231,0.76,0.41,1.027,0.3c4.326-1.782,8.76-2.229,13.365-1.373  c5.756,1.07,10.385,3.985,14.051,8.467c2.924,3.573,4.643,7.686,5.143,12.299C465.854,285.452,469.471,285.452,473.275,285.452z   M423.65,319.012c0.451,0.223,0.793,0.413,1.152,0.564c7.1,3.012,14.402,3.673,21.932,1.959c0.811-0.185,1.082-0.533,1.258-1.303  c1.336-5.836,8.359-9.905,14.006-8.068c0.869,0.283,1.27,0.114,1.82-0.484c4.408-4.786,7.27-10.362,8.609-16.718  c0.307-1.454,0.521-2.927,0.807-4.548c-3.82,0-7.43,0-10.982,0c-1.123,7.893-4.943,13.971-11.801,17.993  c-6.93,4.064-14.135,4.25-21.516,1.14C427.188,312.678,425.457,315.774,423.65,319.012z M314.734,316.298  c-0.042-6.926-6.255-12.445-14.053-12.392c-7.865,0.054-13.876,5.517-13.938,12.392  C296.042,316.298,305.341,316.298,314.734,316.298z M459.08,315.587c-4.287-0.017-7.771,3.039-7.715,7.723  c0.057,4.888,3.297,7.613,8.076,7.84c3.803,0.181,7.326-3.766,7.311-7.898C466.736,318.91,463.41,315.588,459.08,315.587z   M397.936,280.285c-4.941-0.002-7.818,3.605-7.729,7.71c0.094,4.282,2.7,7.534,7.813,7.672c4.252,0.114,7.615-3.377,7.653-7.69  C405.711,283.585,402.378,280.271,397.936,280.285z M466.746,252.542c-0.158-4.481-3.014-7.661-7.686-7.658  c-4.803,0.002-7.617,3.267-7.729,7.759c-0.105,4.294,3.412,7.676,7.703,7.676C463.416,260.319,466.785,256.921,466.746,252.542z   M302.069,218.725c0,1.272,0,2.452,0,3.631c4.329,0,8.576,0,12.837,0c0-1.929,0.029-3.763-0.005-5.594  c-0.082-4.353-1.891-7.775-5.643-10.053c-2.194-1.332-4.614-1.798-7.229-1.641c0,0.465,0.024,0.785-0.004,1.099  c-0.1,1.088-0.026,1.866,1.334,2.316c1.281,0.424,1.996,1.667,2.011,3.133c0.009,0.918,0.004,1.836-0.005,2.754  C305.346,216.456,304.098,218.112,302.069,218.725z M299.581,218.716c-1.902-0.601-3.38-1.533-3.409-3.789  c-0.038-2.973-0.402-6.086,3.394-7.146c0-0.938,0-1.799,0-2.726c-3.525-0.179-6.595,0.742-9.188,3.086  c-4.337,3.92-3.671,9.085-3.621,14.18c4.336,0,8.552,0,12.825,0C299.581,221.109,299.581,219.963,299.581,218.716z M449.705,287.805  c0.113-0.04,0.227-0.079,0.34-0.118c-0.609-1.749-1.01-3.613-1.893-5.21c-0.729-1.316-1.973-2.376-3.098-3.432  c-0.631-0.59-1.535-0.645-2.133,0.118c-0.623,0.794-0.377,1.575,0.391,2.196c0.154,0.126,0.305,0.258,0.459,0.386  c3.809,3.165,4.191,7.986,0.848,11.594c-2.273,2.454-5.082,3.208-8.281,2.172c-2.988-0.966-5.246-3.904-5.488-6.937  c-0.246-3.1,1.166-5.373,3.508-7.2c0.732-0.572,1.006-1.313,0.479-2.089c-0.574-0.848-1.424-0.807-2.211-0.261  c-2.914,2.017-4.338,4.941-4.76,8.342c-0.129,1.039,0.348,2.151,0.533,3.233c0.926,5.379,7.57,9.49,12.887,7.957  C446.262,297.122,449.754,292.942,449.705,287.805z M304.029,288.079c-0.669-0.034-0.978-0.07-1.285-0.062  c-0.659,0.018-0.93-0.286-0.928-0.943c0.009-4.476,0.006-8.951-0.001-13.428c-0.001-0.873,0.487-1.048,1.036-0.552  c0.929,0.841,1.936,1.708,2.535,2.774c0.721,1.283,1.298,2.733-0.132,4.135c-0.737,0.723-0.27,1.583,0.414,2.193  c0.646,0.575,2.054,0.487,2.64-0.142c0.626-0.672,0.981-1.41,0.201-2.205c-0.606-0.616-0.875-1.29-1.014-2.187  c-0.447-2.88-1.823-5.164-4.732-6.235c-0.86-0.316-1.298-1.318-0.852-2.077c0.207-0.353,0.649-0.563,0.978-0.848  c1.099-0.952,1.227-2.724,0.275-3.755c-1.202-1.302-3.198-1.306-4.424-0.009c-0.958,1.014-0.931,2.946,0.271,3.712  c1.111,0.708,1.293,1.582,1.199,2.718c-0.049,0.595-0.048,1.201,0.002,1.796c0.077,0.925-0.344,1.347-1.212,1.611  c-2.863,0.873-4.722,3.392-4.917,6.395c-0.021,0.332-0.519,0.628-0.785,0.95c-0.219,0.265-0.558,0.522-0.602,0.819  c-0.093,0.625-0.092,1.284,0,1.909c0.047,0.321,0.349,0.833,0.58,0.858c0.907,0.101,1.833,0.064,2.748,0.021  c0.173-0.009,0.496-0.314,0.474-0.432c-0.216-1.168,0.687-2.526-0.66-3.54c-0.262-0.196-0.26-0.993-0.12-1.429  c0.547-1.691,1.632-3.008,3.153-3.93c0.308-0.187,0.722-0.198,1.086-0.29c0.081,0.336,0.231,0.672,0.233,1.009  c0.018,2.997,0.01,5.994,0.011,8.992c0,1.927,0.001,1.926-1.819,2.159c-0.063,0.008-0.116,0.095-0.344,0.296  c0.88,1.66,1.777,3.353,2.782,5.249C301.924,291.709,302.917,289.995,304.029,288.079z M301.44,204.414c0-10.646,0-21.22,0-31.82  c-0.408,0-0.749,0-1.107,0c0,10.64,0,21.215,0,31.82C300.736,204.414,301.069,204.414,301.44,204.414z M392.889,171.044  c0-3.451,0-6.817,0-10.217c-1.174,0-2.296,0-3.408,0c0,3.448,0,6.811,0,10.217C390.623,171.044,391.689,171.044,392.889,171.044z   M440.189,281.791c-0.002,0-0.004,0-0.006,0c0-1.639-0.041-3.279,0.014-4.916c0.035-1.025-0.439-1.753-1.363-1.752  c-0.891,0.001-1.438,0.688-1.428,1.718c0.025,3.317,0,6.635,0.01,9.953c0.002,1.004,0.652,1.713,1.512,1.612  c0.893-0.105,1.285-0.665,1.27-1.579C440.168,285.149,440.189,283.47,440.189,281.791z M423.408,160.759c0,3.474,0,6.847,0,10.246  c1.15,0,2.24,0,3.35,0c0-3.453,0-6.826,0-10.246C425.631,160.759,424.566,160.759,423.408,160.759z M409.741,160.732  c0,3.511,0,6.915,0,10.315c1.175,0,2.27,0,3.375,0c0-3.477,0-6.882,0-10.315C411.967,160.732,410.897,160.732,409.741,160.732z   M419.92,171.038c0-3.435,0-6.803,0-10.219c-1.153,0-2.275,0-3.335,0c0,3.453,0,6.822,0,10.219  C417.706,171.038,418.737,171.038,419.92,171.038z M402.932,170.959c1.135,0,2.223,0,3.301,0c0-3.438,0-6.802,0-10.135  c-1.151,0-2.21,0-3.301,0C402.932,164.242,402.932,167.577,402.932,170.959z M399.412,160.804c-1.158,0-2.249,0-3.318,0  c0,3.435,0,6.799,0,10.124c1.169,0,2.259,0,3.318,0C399.412,167.503,399.412,164.171,399.412,160.804z M312.969,182.041  c-0.002,1.983,1.037,3.047,2.966,3.04c1.697-0.006,2.969-1.298,2.974-3.02c0.005-1.771-1.196-2.985-2.964-2.998  C313.921,179.048,312.971,180,312.969,182.041z M290.577,182.015c-0.003-1.793-1.121-2.943-2.878-2.958  c-1.758-0.016-3.018,1.263-2.987,3.032c0.029,1.703,1.292,2.991,2.939,2.998C289.4,185.093,290.58,183.855,290.577,182.015z   M302.278,213.056c0.005,0,0.01,0,0.016,0c0-0.638,0.02-1.277-0.005-1.914c-0.036-0.919-0.627-1.379-1.456-1.46  c-0.899-0.088-1.655,0.342-1.739,1.266c-0.126,1.382-0.126,2.787-0.037,4.173c0.06,0.923,0.786,1.413,1.671,1.369  c0.878-0.043,1.493-0.56,1.543-1.519C302.305,214.333,302.278,213.694,302.278,213.056z M308.719,179.08  c0-1.097-0.821-1.925-1.923-1.937c-1.183-0.013-2.039,0.808-2.035,1.952c0.003,1.098,0.818,1.853,1.991,1.844  C307.988,180.929,308.719,180.239,308.719,179.08z M433.609,171.148c0-0.842,0-1.583,0-2.355c-1.121,0-2.201,0-3.264,0  c0,0.834,0,1.571,0,2.355C431.438,171.148,432.457,171.148,433.609,171.148z"/>
<path fill-rule="evenodd" clip-rule="evenodd" d="M285.987,363.856c0-6.039-0.001-12.078,0-18.118c0-1.63,0.681-2.314,2.299-2.314  c8.399-0.001,16.798-0.002,25.197,0c1.586,0.001,2.446,0.884,2.446,2.501c0.001,11.959,0.001,23.917,0,35.876  c0,1.596-0.374,1.974-1.967,1.974c-8.759,0.002-17.518,0.003-26.276,0c-1.396-0.001-1.694-0.29-1.696-1.681  C285.984,376.015,285.987,369.936,285.987,363.856z M298.365,358.932c-3.088,0-6.103,0-9.142,0c0,1.496,0,2.908,0,4.355  c3.088,0,6.12,0,9.142,0C298.365,361.796,298.365,360.413,298.365,358.932z M303.546,363.315c2.974,0,5.858,0,8.767,0  c0-1.502,0-2.917,0-4.402c-2.94,0-5.825,0-8.767,0C303.546,360.389,303.546,361.809,303.546,363.315z"/>
<path fill-rule="evenodd" clip-rule="evenodd" d="M326.104,152.65c0,1.357,0.225,2.76-0.041,4.063  c-0.91,4.467-2.769,8.529-5.721,12.046c-0.539,0.642-1.125,1.244-1.679,1.873c-0.628,0.714-1.825,1.022-2.387,0.603  c-1.052-0.786-1.563-2.252-1.05-3.115c0.243-0.409,0.527-0.807,0.857-1.148c4.55-4.702,6.215-10.43,5.625-16.787  c-0.431-4.64-2.283-8.768-5.605-12.151c-1.443-1.47-1.523-2.535-0.009-3.7c0.489-0.377,1.835-0.381,2.261,0.015  c3.623,3.361,6.104,7.457,7.168,12.315c0.429,1.956,0.631,3.962,0.937,5.945C326.342,152.622,326.224,152.636,326.104,152.65z"/>
<path fill-rule="evenodd" clip-rule="evenodd" d="M284.422,133.745c1.36,0.044,1.749,1.037,2.227,1.819  c0.531,0.869-0.144,1.494-0.617,2.125c-1.143,1.528-2.465,2.953-3.408,4.596c-4.582,7.982-3.163,18.413,3.288,24.984  c0.629,0.641,1.353,1.381,0.713,2.283c-0.567,0.798-0.915,2.071-2.338,1.828c-0.257-0.044-0.563-0.126-0.735-0.301  c-3.835-3.896-6.81-8.415-7.58-13.837c-1.072-7.55,0.161-14.726,5.384-20.75c0.575-0.663,1.14-1.341,1.775-1.942  C283.493,134.209,283.988,134.009,284.422,133.745z"/>
<path fill-rule="evenodd" clip-rule="evenodd" d="M286.238,152.78c-0.011-4.249,1.499-7.536,4.16-10.333  c1.156-1.214,2.116-1.26,3.182-0.231c1.026,0.991,1.01,1.925-0.053,3.124c-3.873,4.368-3.891,9.951-0.047,14.372  c1.082,1.245,1.131,2.028,0.188,3.015c-1.086,1.137-2.045,1.184-3.153,0.035C287.746,159.89,286.169,156.505,286.238,152.78z"/>
<path fill-rule="evenodd" clip-rule="evenodd" d="M315.635,153.034c-0.177,3.521-1.558,6.96-4.37,9.769  c-1.122,1.121-1.978,1.126-3.004,0.144c-1.013-0.969-1.012-2.018,0.004-3.142c3.908-4.322,3.908-10.087-0.001-14.543  c-1.26-1.437-0.871-3.017,0.909-3.689c1.021-0.386,1.673,0.26,2.291,0.875C314.017,144.992,315.644,148.991,315.635,153.034z"/>
<path fill-rule="evenodd" clip-rule="evenodd" d="M486.537,353.921c0,9.26,0,18.405,0,27.615c-52.92,0-105.784,0-158.737,0  c0-9.178,0-18.354,0-27.615C380.665,353.921,433.557,353.921,486.537,353.921z M379.321,380.191c8.437,0,16.874,0.002,25.312-0.001  c1.774-0.001,2.473-0.696,2.481-2.448c0.006-0.999,0.003-1.999,0.001-2.998c-0.002-2.05-0.667-2.711-2.729-2.711  c-16.635,0-33.27,0-49.904,0c-0.2,0-0.4-0.006-0.6,0.001c-1.356,0.051-2.14,0.828-2.161,2.178c-0.017,1.119-0.005,2.239-0.002,3.359  c0.005,2.028,0.602,2.62,2.649,2.62C362.686,380.192,371.003,380.191,379.321,380.191z M464.695,375.133  c1.518,0,3.037,0.02,4.555-0.006c1.176-0.019,1.967-0.774,1.986-1.926c0.031-1.838,0.035-3.677-0.002-5.514  c-0.021-1.108-0.785-1.868-1.91-1.879c-3.076-0.028-6.154-0.028-9.23,0.002c-1.176,0.011-1.91,0.792-1.926,1.98  c-0.023,1.758-0.021,3.517,0.002,5.274c0.018,1.314,0.766,2.048,2.09,2.063C461.738,375.146,463.217,375.133,464.695,375.133z   M464.734,355.087c-1.518,0-3.035-0.027-4.553,0.008c-1.271,0.03-1.996,0.769-2.012,2.026c-0.023,1.757-0.023,3.515-0.002,5.271  c0.016,1.214,0.689,1.988,1.893,2.008c3.074,0.05,6.15,0.052,9.225,0.008c1.266-0.019,1.945-0.805,1.955-2.073  c0.016-1.677,0.01-3.354,0.002-5.031c-0.008-1.467-0.719-2.193-2.195-2.215C467.609,355.069,466.172,355.085,464.734,355.087z   M342.176,380.189c1.518,0,3.037,0.025,4.555-0.008c1.176-0.026,1.977-0.77,2.023-1.933c0.057-1.436,0.058-2.878-0.005-4.313  c-0.047-1.06-0.895-1.875-1.966-1.888c-3.076-0.035-6.153-0.038-9.229,0.002c-1.147,0.015-1.896,0.86-1.911,2.013  c-0.018,1.318-0.012,2.638-0.002,3.956c0.01,1.433,0.686,2.145,2.102,2.168C339.219,380.211,340.697,380.191,342.176,380.189z   M478.684,375.132c1.518,0,3.035,0.016,4.551-0.006c1.283-0.018,1.977-0.718,1.99-2.009c0.02-1.757,0.02-3.514,0-5.27  c-0.012-1.322-0.67-2.031-1.955-2.042c-3.031-0.024-6.061-0.025-9.092,0.002c-1.217,0.012-1.973,0.819-1.99,2.063  c-0.021,1.717-0.02,3.434,0.002,5.149c0.018,1.349,0.801,2.098,2.184,2.11C475.811,375.144,477.248,375.133,478.684,375.132z   M450,380.191c1.439,0,2.877,0.01,4.314-0.003c1.541-0.013,2.281-0.743,2.297-2.259c0.012-1.198,0.012-2.396,0-3.596  c-0.014-1.493-0.793-2.288-2.287-2.296c-2.875-0.015-5.752-0.016-8.629,0.001c-1.393,0.007-2.178,0.717-2.246,2.104  c-0.066,1.315-0.063,2.639-0.004,3.954c0.064,1.396,0.826,2.074,2.24,2.091C447.123,380.204,448.563,380.191,450,380.191z   M433.598,380.193c1.518,0,3.035,0.021,4.553-0.006c1.32-0.023,2.076-0.773,2.104-2.081c0.027-1.316,0.027-2.636,0-3.952  c-0.027-1.276-0.824-2.101-2.104-2.112c-2.994-0.026-5.988-0.028-8.984,0.003c-1.236,0.013-1.988,0.804-2.016,2.045  c-0.027,1.317-0.018,2.636-0.002,3.953c0.018,1.426,0.709,2.123,2.137,2.144C430.723,380.206,432.16,380.19,433.598,380.193z   M416.855,380.191c1.519,0,3.037,0.024,4.555-0.007c1.236-0.026,2.01-0.793,2.045-2.03c0.037-1.317,0.031-2.637,0.002-3.955  c-0.027-1.338-0.838-2.149-2.188-2.159c-2.916-0.021-5.833-0.019-8.75-0.001c-1.354,0.008-2.198,0.786-2.25,2.119  c-0.052,1.316-0.051,2.638,0.005,3.954c0.057,1.348,0.87,2.063,2.265,2.076C413.978,380.202,415.417,380.191,416.855,380.191z   M478.678,355.086c-1.477,0-2.953-0.025-4.428,0.008c-1.293,0.028-2.049,0.814-2.063,2.118c-0.02,1.716-0.021,3.432,0.002,5.146  c0.016,1.197,0.717,2.029,1.871,2.047c3.111,0.046,6.225,0.043,9.334-0.005c1.184-0.019,1.814-0.734,1.83-1.915  c0.023-1.795,0.02-3.59,0-5.385c-0.014-1.303-0.68-1.979-1.998-2.006C481.711,355.063,480.193,355.088,478.678,355.086z   M368.218,362.771c1.129-1.397,1.517-2.895,0.651-4.486c-0.864-1.588-2.284-2.232-4.086-2.181c-1.797,0.051-3.597-0.009-5.396,0.017  c-1.297,0.018-1.623,0.367-1.625,1.664c-0.006,3.358,0.021,6.716-0.016,10.073c-0.012,1.114,0.426,1.63,1.544,1.62  c2.078-0.017,4.167,0.113,6.231-0.058c0.912-0.076,1.936-0.557,2.626-1.171C369.728,366.844,369.686,365.09,368.218,362.771z   M448.904,369.474c0.92,0,1.846-0.067,2.758,0.012c2.527,0.221,4.291-2.08,4.238-3.915c-0.064-2.232-1.82-3.891-4.27-3.921  c-1.119-0.014-2.238,0.012-3.357-0.015c-0.988-0.023-1.57-0.505-1.588-1.549c-0.018-1.097,0.65-1.71,1.969-1.725  c1.92-0.021,3.838-0.019,5.758,0.001c0.775,0.008,1.41-0.22,1.439-1.065c0.031-0.842-0.59-1.173-1.357-1.176  c-2.119-0.006-4.24-0.053-6.354,0.039c-2.264,0.099-3.879,1.908-3.795,4.086c0.076,2.038,1.887,3.688,4.086,3.712  c1.039,0.012,2.078-0.009,3.117,0.003c1.385,0.016,2.023,0.541,2.023,1.64c0,1.083-0.664,1.635-2.035,1.645  c-1.918,0.014-3.838,0.013-5.756-0.002c-0.793-0.006-1.395,0.306-1.404,1.121c-0.01,0.847,0.648,1.108,1.41,1.109  C446.826,369.475,447.865,369.474,448.904,369.474z M385.612,369.472c1.397,0,2.796,0.019,4.193-0.005  c1.403-0.023,1.815-0.634,1.299-1.896c-1.086-2.653-2.179-5.303-3.276-7.95c-0.365-0.883-0.696-1.788-1.158-2.619  c-0.201-0.36-0.712-0.801-1.045-0.773c-0.411,0.035-0.809,0.495-1.164,0.822c-0.161,0.149-0.215,0.421-0.306,0.641  c-1.359,3.271-2.714,6.544-4.073,9.815c-0.534,1.286-0.155,1.93,1.218,1.96C382.737,369.497,384.174,369.474,385.612,369.472z   M341.478,369.473c1.438,0,2.877,0.024,4.314-0.007c1.309-0.028,1.716-0.652,1.22-1.864c-1.389-3.391-2.769-6.786-4.234-10.145  c-0.229-0.525-0.853-1.121-1.365-1.195c-0.344-0.05-0.976,0.692-1.198,1.203c-1.464,3.359-2.854,6.751-4.265,10.134  c-0.5,1.197-0.1,1.838,1.213,1.867C338.601,369.498,340.039,369.473,341.478,369.473z M433.854,360.859  c0-0.999-0.01-1.997,0.004-2.995c0.01-0.866-0.1-1.703-1.201-1.672c-1.018,0.029-1.111,0.847-1.109,1.653  c0.004,1.917,0.021,3.834-0.002,5.751c-0.023,2.156-1.441,3.633-3.451,3.643c-1.996,0.01-3.447-1.473-3.48-3.609  c-0.027-1.876-0.012-3.754-0.004-5.63c0.004-0.884-0.025-1.819-1.197-1.805c-1.09,0.014-1.135,0.894-1.127,1.745  c0.018,1.877,0.004,3.754,0.008,5.631c0.004,3.285,2.465,5.858,5.639,5.901c3.293,0.045,5.844-2.421,5.92-5.738  C433.873,362.776,433.854,361.817,433.854,360.859z M408.184,356.138c-0.001-0.017-0.001-0.033-0.002-0.05  c-0.637,0.032-1.275,0.052-1.912,0.1c-3.393,0.255-6.075,3.304-6.022,6.837c0.049,3.322,2.89,6.293,6.2,6.436  c1.275,0.055,2.556,0.015,3.833,0.014c0.795,0,1.513-0.212,1.471-1.158c-0.037-0.827-0.662-1.086-1.443-1.074  c-1.197,0.019-2.399,0.051-3.593-0.023c-2.276-0.143-4.002-1.801-4.146-3.896c-0.173-2.519,1.071-4.332,3.52-4.759  c1.436-0.251,2.942-0.074,4.397-0.247c0.461-0.055,0.86-0.621,1.288-0.953c-0.399-0.408-0.737-1.046-1.211-1.172  C409.819,355.992,408.982,356.138,408.184,356.138z"/>
<path fill-rule="evenodd" clip-rule="evenodd" d="M286.726,224.352c9.395,0,18.732,0,27.963,0c0,6.299,0.061,12.516-0.05,18.729  c-0.022,1.264-0.56,2.575-1.086,3.764c-1.926,4.349-5.716,8.149-11.631,7.798c-0.996-0.059-1.999-0.037-2.998-0.021  c-4.221,0.072-7.33-1.9-9.638-5.284c-2.001-2.935-2.809-6.218-2.752-9.753c0.078-4.875,0.106-9.751,0.158-14.627  C286.692,224.766,286.712,224.576,286.726,224.352z"/>
<path fill-rule="evenodd" clip-rule="evenodd" d="M424.92,307.214c-1.875,3.142-3.709,6.217-5.581,9.354  c-3.684-2.492-6.716-5.519-9.149-9.129c-2.064-3.062-3.69-6.345-4.569-9.95c-0.096-0.394,0.06-1.022,0.339-1.306  c4.705-4.77,4.755-11.688,0.01-16.38c-0.636-0.628-0.472-1.117-0.295-1.784c1.871-7.083,7.604-14.949,13.686-18.642  c1.851,3.1,3.703,6.198,5.552,9.296C411.597,278.668,411.927,297.493,424.92,307.214z"/>
<path fill-rule="evenodd" clip-rule="evenodd" d="M473.275,285.452c-3.805,0-7.422,0-11.07,0c-0.5-4.613-2.219-8.726-5.143-12.299  c-3.666-4.481-8.295-7.396-14.051-8.467c-4.605-0.856-9.039-0.409-13.365,1.373c-0.268,0.11-0.895-0.068-1.027-0.3  c-1.668-2.906-3.275-5.848-5.045-9.047c2.105-0.721,4.1-1.492,6.145-2.084c3.793-1.099,7.689-1.418,11.615-1.118  c1.822,0.139,3.637,0.488,5.426,0.876c0.453,0.098,1.033,0.649,1.15,1.096c1.59,6.165,8.121,9.968,14.273,8.202  c0.639-0.184,0.982-0.128,1.436,0.354c4.746,5.058,7.764,10.971,8.941,17.815c0.1,0.59,0.246,1.172,0.365,1.76  C473.035,284.158,473.133,284.705,473.275,285.452z"/>
<path fill-rule="evenodd" clip-rule="evenodd" d="M423.65,319.012c1.807-3.237,3.537-6.334,5.285-9.465  c7.381,3.11,14.586,2.925,21.516-1.14c6.857-4.022,10.678-10.101,11.801-17.993c3.553,0,7.162,0,10.982,0  c-0.285,1.621-0.5,3.094-0.807,4.548c-1.34,6.355-4.201,11.932-8.609,16.718c-0.551,0.599-0.951,0.768-1.82,0.484  c-5.646-1.837-12.67,2.232-14.006,8.068c-0.176,0.77-0.447,1.118-1.258,1.303c-7.529,1.714-14.832,1.053-21.932-1.959  C424.443,319.425,424.102,319.234,423.65,319.012z"/>
<path fill-rule="evenodd" clip-rule="evenodd" d="M314.734,316.298c-9.393,0-18.692,0-27.992,0  c0.062-6.875,6.073-12.338,13.938-12.392C308.479,303.853,314.691,309.372,314.734,316.298z M293.963,308.911  c-0.792-0.034-1.745,0.874-1.742,1.657c0.004,0.73,0.884,1.637,1.619,1.667c0.775,0.032,1.744-0.893,1.743-1.665  C295.582,309.839,294.707,308.942,293.963,308.911z M309.215,310.534c-0.019-0.787-0.839-1.608-1.62-1.622  c-0.811-0.014-1.708,0.89-1.682,1.692c0.025,0.752,0.893,1.617,1.636,1.632C308.363,312.253,309.234,311.362,309.215,310.534z"/>
<path fill-rule="evenodd" clip-rule="evenodd" d="M459.08,315.587c4.33,0.001,7.656,3.323,7.672,7.664  c0.016,4.133-3.508,8.079-7.311,7.898c-4.779-0.227-8.02-2.952-8.076-7.84C451.309,318.626,454.793,315.57,459.08,315.587z"/>
<path fill-rule="evenodd" clip-rule="evenodd" d="M397.936,280.285c4.442-0.014,7.775,3.3,7.737,7.691  c-0.038,4.313-3.401,7.805-7.653,7.69c-5.112-0.138-7.719-3.39-7.813-7.672C390.118,283.891,392.995,280.283,397.936,280.285z"/>
<path fill-rule="evenodd" clip-rule="evenodd" d="M466.746,252.542c0.039,4.378-3.33,7.777-7.711,7.777  c-4.291,0-7.809-3.382-7.703-7.676c0.111-4.492,2.926-7.756,7.729-7.759C463.732,244.882,466.588,248.062,466.746,252.542z"/>
<path fill-rule="evenodd" clip-rule="evenodd" d="M302.069,218.725c2.029-0.613,3.277-2.269,3.297-4.354  c0.009-0.918,0.014-1.836,0.005-2.754c-0.015-1.466-0.73-2.709-2.011-3.133c-1.36-0.45-1.434-1.228-1.334-2.316  c0.029-0.314,0.004-0.634,0.004-1.099c2.614-0.157,5.034,0.309,7.229,1.641c3.752,2.277,5.561,5.7,5.643,10.053  c0.034,1.832,0.005,3.665,0.005,5.594c-4.262,0-8.508,0-12.837,0C302.069,221.176,302.069,219.997,302.069,218.725z"/>
<path fill-rule="evenodd" clip-rule="evenodd" d="M299.581,218.716c0,1.247,0,2.394,0,3.606c-4.273,0-8.489,0-12.825,0  c-0.05-5.095-0.716-10.259,3.621-14.18c2.594-2.344,5.664-3.266,9.188-3.086c0,0.927,0,1.789,0,2.726  c-3.795,1.06-3.431,4.172-3.394,7.146C296.201,217.183,297.678,218.115,299.581,218.716z"/>
<path fill-rule="evenodd" clip-rule="evenodd" d="M449.705,287.805c0.049,5.138-3.443,9.317-8.42,10.752  c-5.316,1.533-11.961-2.578-12.887-7.957c-0.186-1.082-0.662-2.194-0.533-3.233c0.422-3.4,1.846-6.325,4.76-8.342  c0.787-0.546,1.637-0.587,2.211,0.261c0.527,0.776,0.254,1.517-0.479,2.089c-2.342,1.827-3.754,4.101-3.508,7.2  c0.242,3.032,2.5,5.971,5.488,6.937c3.199,1.036,6.008,0.282,8.281-2.172c3.344-3.607,2.961-8.429-0.848-11.594  c-0.154-0.128-0.305-0.26-0.459-0.386c-0.768-0.621-1.014-1.402-0.391-2.196c0.598-0.763,1.502-0.708,2.133-0.118  c1.125,1.056,2.369,2.115,3.098,3.432c0.883,1.597,1.283,3.461,1.893,5.21C449.932,287.726,449.818,287.765,449.705,287.805z"/>
<path fill-rule="evenodd" clip-rule="evenodd" d="M304.029,288.079c-1.111,1.916-2.105,3.63-3.21,5.536  c-1.005-1.896-1.902-3.589-2.782-5.249c0.228-0.201,0.281-0.288,0.344-0.296c1.82-0.233,1.82-0.232,1.819-2.159  c-0.001-2.998,0.007-5.995-0.011-8.992c-0.002-0.337-0.152-0.673-0.233-1.009c-0.365,0.092-0.779,0.104-1.086,0.29  c-1.521,0.922-2.606,2.238-3.153,3.93c-0.141,0.436-0.142,1.232,0.12,1.429c1.347,1.014,0.444,2.372,0.66,3.54  c0.022,0.117-0.301,0.423-0.474,0.432c-0.916,0.043-1.841,0.079-2.748-0.021c-0.231-0.025-0.533-0.537-0.58-0.858  c-0.093-0.625-0.093-1.284,0-1.909c0.044-0.297,0.383-0.555,0.602-0.819c0.266-0.322,0.764-0.618,0.785-0.95  c0.195-3.003,2.054-5.521,4.917-6.395c0.868-0.265,1.29-0.687,1.212-1.611c-0.05-0.595-0.051-1.201-0.002-1.796  c0.095-1.136-0.087-2.01-1.199-2.718c-1.203-0.766-1.23-2.698-0.271-3.712c1.227-1.297,3.222-1.293,4.424,0.009  c0.952,1.031,0.823,2.803-0.275,3.755c-0.329,0.284-0.771,0.495-0.978,0.848c-0.446,0.759-0.008,1.761,0.852,2.077  c2.91,1.071,4.286,3.355,4.732,6.235c0.139,0.896,0.408,1.57,1.014,2.187c0.781,0.795,0.425,1.533-0.201,2.205  c-0.586,0.629-1.995,0.717-2.64,0.142c-0.684-0.61-1.151-1.471-0.414-2.193c1.431-1.401,0.854-2.852,0.132-4.135  c-0.599-1.066-1.605-1.934-2.535-2.774c-0.549-0.496-1.038-0.321-1.036,0.552c0.007,4.477,0.011,8.952,0.001,13.428  c-0.001,0.657,0.27,0.961,0.928,0.943C303.051,288.009,303.36,288.045,304.029,288.079z"/>
<path fill-rule="evenodd" clip-rule="evenodd" d="M301.44,204.414c-0.371,0-0.704,0-1.107,0c0-10.604,0-21.18,0-31.82  c0.358,0,0.699,0,1.107,0C301.44,183.194,301.44,193.769,301.44,204.414z"/>
<path fill-rule="evenodd" clip-rule="evenodd" d="M392.889,171.044c-1.2,0-2.267,0-3.408,0c0-3.406,0-6.769,0-10.217  c1.112,0,2.234,0,3.408,0C392.889,164.228,392.889,167.593,392.889,171.044z"/>
<path fill-rule="evenodd" clip-rule="evenodd" d="M440.189,281.791c0,1.679-0.021,3.358,0.008,5.036  c0.016,0.914-0.377,1.474-1.27,1.579c-0.859,0.101-1.51-0.608-1.512-1.612c-0.01-3.318,0.016-6.636-0.01-9.953  c-0.01-1.029,0.537-1.717,1.428-1.718c0.924-0.001,1.398,0.727,1.363,1.752c-0.055,1.637-0.014,3.277-0.014,4.916  C440.186,281.791,440.188,281.791,440.189,281.791z"/>
<path fill-rule="evenodd" clip-rule="evenodd" d="M423.408,160.759c1.158,0,2.223,0,3.35,0c0,3.42,0,6.793,0,10.246  c-1.109,0-2.199,0-3.35,0C423.408,167.606,423.408,164.233,423.408,160.759z"/>
<path fill-rule="evenodd" clip-rule="evenodd" d="M409.741,160.732c1.156,0,2.227,0,3.375,0c0,3.434,0,6.839,0,10.315  c-1.105,0-2.2,0-3.375,0C409.741,167.647,409.741,164.243,409.741,160.732z"/>
<path fill-rule="evenodd" clip-rule="evenodd" d="M419.92,171.038c-1.184,0-2.215,0-3.335,0c0-3.397,0-6.766,0-10.219  c1.06,0,2.182,0,3.335,0C419.92,164.235,419.92,167.603,419.92,171.038z"/>
<path fill-rule="evenodd" clip-rule="evenodd" d="M402.932,170.959c0-3.382,0-6.717,0-10.135c1.091,0,2.149,0,3.301,0  c0,3.333,0,6.696,0,10.135C405.155,170.959,404.067,170.959,402.932,170.959z"/>
<path fill-rule="evenodd" clip-rule="evenodd" d="M399.412,160.804c0,3.367,0,6.699,0,10.124c-1.06,0-2.149,0-3.318,0  c0-3.325,0-6.688,0-10.124C397.163,160.804,398.253,160.804,399.412,160.804z"/>
<path fill-rule="evenodd" clip-rule="evenodd" d="M312.969,182.041c0.001-2.042,0.952-2.993,2.975-2.978  c1.768,0.013,2.969,1.227,2.964,2.998c-0.005,1.722-1.277,3.014-2.974,3.02C314.006,185.088,312.967,184.024,312.969,182.041z"/>
<path fill-rule="evenodd" clip-rule="evenodd" d="M290.577,182.015c0.003,1.84-1.177,3.079-2.926,3.071  c-1.647-0.007-2.91-1.295-2.939-2.998c-0.031-1.769,1.229-3.047,2.987-3.032C289.456,179.071,290.574,180.221,290.577,182.015z"/>
<path fill-rule="evenodd" clip-rule="evenodd" d="M302.278,213.056c0,0.638,0.027,1.278-0.006,1.914  c-0.05,0.958-0.665,1.475-1.543,1.519c-0.885,0.044-1.611-0.446-1.671-1.369c-0.089-1.386-0.089-2.791,0.037-4.173  c0.084-0.923,0.839-1.354,1.739-1.266c0.828,0.081,1.419,0.542,1.456,1.46c0.025,0.637,0.005,1.276,0.005,1.914  C302.288,213.055,302.283,213.055,302.278,213.056z"/>
<path fill-rule="evenodd" clip-rule="evenodd" d="M308.719,179.08c0,1.159-0.731,1.849-1.968,1.858  c-1.172,0.009-1.987-0.746-1.991-1.844c-0.003-1.144,0.853-1.965,2.035-1.952C307.898,177.155,308.719,177.983,308.719,179.08z"/>
<path fill-rule="evenodd" clip-rule="evenodd" d="M433.609,171.148c-1.152,0-2.172,0-3.264,0c0-0.784,0-1.521,0-2.355  c1.063,0,2.143,0,3.264,0C433.609,169.564,433.609,170.306,433.609,171.148z"/>
<path fill-rule="evenodd" clip-rule="evenodd" d="M298.365,358.932c0,1.481,0,2.864,0,4.355c-3.022,0-6.054,0-9.142,0  c0-1.447,0-2.859,0-4.355C292.262,358.932,295.277,358.932,298.365,358.932z"/>
<path fill-rule="evenodd" clip-rule="evenodd" d="M303.546,363.315c0-1.507,0-2.927,0-4.402c2.941,0,5.826,0,8.767,0  c0,1.485,0,2.9,0,4.402C309.405,363.315,306.52,363.315,303.546,363.315z"/>
<path fill-rule="evenodd" clip-rule="evenodd" d="M379.321,380.191c-8.318,0-16.635,0.001-24.953,0c-2.047,0-2.644-0.592-2.649-2.62  c-0.003-1.12-0.015-2.24,0.002-3.359c0.021-1.35,0.805-2.127,2.161-2.178c0.2-0.007,0.399-0.001,0.6-0.001  c16.635,0,33.27,0,49.904,0c2.062,0,2.727,0.661,2.729,2.711c0.002,0.999,0.005,1.999-0.001,2.998  c-0.009,1.752-0.707,2.447-2.481,2.448C396.195,380.193,387.757,380.191,379.321,380.191z M362.385,375.498  c-0.003,0.069-0.005,0.139-0.008,0.207c10.891,0,21.782,0,32.673,0c0-0.068-0.001-0.138-0.001-0.207  C384.162,375.498,373.273,375.498,362.385,375.498z"/>
<path fill-rule="evenodd" clip-rule="evenodd" d="M464.695,375.133c-1.479,0-2.957,0.014-4.436-0.004  c-1.324-0.016-2.072-0.749-2.09-2.063c-0.023-1.758-0.025-3.517-0.002-5.274c0.016-1.188,0.75-1.97,1.926-1.98  c3.076-0.03,6.154-0.03,9.23-0.002c1.125,0.011,1.889,0.771,1.91,1.879c0.037,1.837,0.033,3.676,0.002,5.514  c-0.02,1.151-0.811,1.907-1.986,1.926C467.732,375.152,466.213,375.133,464.695,375.133z"/>
<path fill-rule="evenodd" clip-rule="evenodd" d="M464.734,355.086c1.438-0.001,2.875-0.017,4.313,0.003  c1.477,0.021,2.188,0.748,2.195,2.215c0.008,1.677,0.014,3.354-0.002,5.031c-0.01,1.269-0.689,2.055-1.955,2.073  c-3.074,0.044-6.15,0.042-9.225-0.008c-1.203-0.02-1.877-0.794-1.893-2.008c-0.021-1.757-0.021-3.515,0.002-5.271  c0.016-1.258,0.74-1.996,2.012-2.026C461.699,355.06,463.217,355.087,464.734,355.086z M466.703,362.158  c-0.018-0.107-0.037-0.215-0.055-0.323c-0.748,0-1.502,0.058-2.24-0.028c-0.297-0.034-0.559-0.383-0.836-0.589  c0.268-0.327,0.477-0.815,0.818-0.942c0.459-0.171,1.098,0.093,1.518-0.115c0.465-0.23,0.986-0.748,1.063-1.21  c0.049-0.294-0.619-0.935-1.051-1.03c-0.773-0.171-1.613-0.048-2.426-0.048c0,0.101,0,0.202,0,0.303  c0.742,0,1.504-0.098,2.219,0.042c0.354,0.068,0.619,0.575,0.926,0.883c-0.328,0.232-0.627,0.563-0.99,0.671  c-0.404,0.119-0.881-0.025-1.305,0.054c-0.826,0.153-1.193,0.698-1.176,1.543c0.021,0.97,0.738,0.762,1.295,0.784  C465.209,362.181,465.957,362.158,466.703,362.158z"/>
<path fill-rule="evenodd" clip-rule="evenodd" d="M342.176,380.19c-1.479,0.001-2.957,0.021-4.435-0.004  c-1.416-0.023-2.092-0.735-2.102-2.168c-0.009-1.318-0.016-2.638,0.002-3.956c0.016-1.152,0.764-1.998,1.911-2.013  c3.076-0.04,6.153-0.037,9.229-0.002c1.071,0.013,1.919,0.828,1.966,1.888c0.063,1.436,0.062,2.878,0.005,4.313  c-0.046,1.163-0.847,1.906-2.023,1.933C345.213,380.215,343.694,380.189,342.176,380.19z"/>
<path fill-rule="evenodd" clip-rule="evenodd" d="M478.684,375.132c-1.436,0.001-2.873,0.012-4.311-0.002  c-1.383-0.013-2.166-0.762-2.184-2.11c-0.021-1.716-0.023-3.433-0.002-5.149c0.018-1.243,0.773-2.051,1.99-2.063  c3.031-0.027,6.061-0.026,9.092-0.002c1.285,0.011,1.943,0.72,1.955,2.042c0.02,1.756,0.02,3.513,0,5.27  c-0.014,1.291-0.707,1.991-1.99,2.009C481.719,375.147,480.201,375.132,478.684,375.132z M478.061,368.196  c-0.07,0.013-0.492,0.006-0.838,0.166c-1.477,0.684,0.082,2.105-0.666,3.023c-0.063,0.076,0.396,0.812,0.719,0.916  c0.582,0.188,1.254,0.224,1.871,0.158c1.008-0.106,1.326-0.772,0.961-1.764c-0.063-0.171-0.129-0.377-0.092-0.543  C480.383,368.526,480.109,368.188,478.061,368.196z"/>
<path fill-rule="evenodd" clip-rule="evenodd" d="M450,380.191c-1.438,0-2.877,0.013-4.314-0.004  c-1.414-0.017-2.176-0.695-2.24-2.091c-0.059-1.315-0.063-2.639,0.004-3.954c0.068-1.387,0.854-2.097,2.246-2.104  c2.877-0.017,5.754-0.016,8.629-0.001c1.494,0.008,2.273,0.803,2.287,2.296c0.012,1.199,0.012,2.397,0,3.596  c-0.016,1.516-0.756,2.246-2.297,2.259C452.877,380.201,451.439,380.191,450,380.191z"/>
<path fill-rule="evenodd" clip-rule="evenodd" d="M433.598,380.192c-1.438-0.002-2.875,0.014-4.313-0.006  c-1.428-0.021-2.119-0.718-2.137-2.144c-0.016-1.317-0.025-2.636,0.002-3.953c0.027-1.241,0.779-2.032,2.016-2.045  c2.996-0.031,5.99-0.029,8.984-0.003c1.279,0.012,2.076,0.836,2.104,2.112c0.027,1.316,0.027,2.636,0,3.952  c-0.027,1.308-0.783,2.058-2.104,2.081C436.633,380.215,435.115,380.193,433.598,380.192z"/>
<path fill-rule="evenodd" clip-rule="evenodd" d="M416.855,380.191c-1.438,0-2.877,0.011-4.315-0.003  c-1.395-0.014-2.208-0.729-2.265-2.076c-0.056-1.316-0.057-2.638-0.005-3.954c0.052-1.333,0.896-2.111,2.25-2.119  c2.917-0.018,5.834-0.021,8.75,0.001c1.35,0.01,2.16,0.821,2.188,2.159c0.029,1.318,0.035,2.638-0.002,3.955  c-0.035,1.237-0.809,2.004-2.045,2.03C419.892,380.216,418.374,380.191,416.855,380.191z"/>
<path fill-rule="evenodd" clip-rule="evenodd" d="M478.678,355.087c1.516,0.001,3.033-0.023,4.549,0.008  c1.318,0.027,1.984,0.703,1.998,2.006c0.02,1.795,0.023,3.59,0,5.385c-0.016,1.181-0.646,1.896-1.83,1.915  c-3.109,0.048-6.223,0.051-9.334,0.005c-1.154-0.018-1.855-0.85-1.871-2.047c-0.023-1.715-0.021-3.431-0.002-5.146  c0.014-1.304,0.77-2.09,2.063-2.118C475.725,355.061,477.201,355.086,478.678,355.087z M481.051,359.962  c-0.025-1.129-1.115-2.118-2.318-2.104c-1.23,0.015-2.246,1.004-2.23,2.171c0.018,1.141,1.111,2.154,2.295,2.126  S481.076,361.061,481.051,359.962z"/>
<path fill-rule="evenodd" clip-rule="evenodd" d="M368.218,362.771c1.468,2.319,1.51,4.073-0.069,5.479  c-0.691,0.614-1.715,1.095-2.626,1.171c-2.064,0.171-4.153,0.041-6.231,0.058c-1.119,0.01-1.557-0.506-1.544-1.62  c0.037-3.357,0.009-6.715,0.016-10.073c0.002-1.297,0.328-1.646,1.625-1.664c1.798-0.025,3.598,0.034,5.396-0.017  c1.803-0.052,3.222,0.593,4.086,2.181C369.735,359.876,369.347,361.373,368.218,362.771z M360.107,361.643  c1.769,0,3.502,0.002,5.236,0c1-0.001,1.587-0.532,1.673-1.496c0.089-0.999-0.546-1.673-1.443-1.731  c-1.805-0.118-3.622-0.035-5.467-0.035C360.107,359.468,360.107,360.416,360.107,361.643z M360.135,367.242  c1.834,0,3.542,0.034,5.247-0.014c0.953-0.026,1.591-0.58,1.636-1.557c0.044-0.971-0.511-1.64-1.48-1.68  c-1.778-0.073-3.561-0.021-5.403-0.021C360.135,365.09,360.135,366.102,360.135,367.242z"/>
<path fill-rule="evenodd" clip-rule="evenodd" d="M448.904,369.474c-1.039,0-2.078,0.001-3.117,0  c-0.762-0.001-1.42-0.263-1.41-1.109c0.01-0.815,0.611-1.127,1.404-1.121c1.918,0.015,3.838,0.016,5.756,0.002  c1.371-0.01,2.035-0.562,2.035-1.645c0-1.099-0.639-1.624-2.023-1.64c-1.039-0.012-2.078,0.009-3.117-0.003  c-2.199-0.023-4.01-1.674-4.086-3.712c-0.084-2.178,1.531-3.987,3.795-4.086c2.113-0.092,4.234-0.045,6.354-0.039  c0.768,0.003,1.389,0.334,1.357,1.176c-0.029,0.846-0.664,1.073-1.439,1.065c-1.92-0.02-3.838-0.022-5.758-0.001  c-1.318,0.015-1.986,0.628-1.969,1.725c0.018,1.044,0.6,1.525,1.588,1.549c1.119,0.026,2.238,0.001,3.357,0.015  c2.449,0.03,4.205,1.688,4.27,3.921c0.053,1.835-1.711,4.136-4.238,3.915C450.75,369.406,449.824,369.474,448.904,369.474z"/>
<path fill-rule="evenodd" clip-rule="evenodd" d="M385.612,369.473c-1.438,0.001-2.875,0.024-4.313-0.006  c-1.373-0.03-1.752-0.674-1.218-1.96c1.359-3.271,2.714-6.544,4.073-9.815c0.091-0.22,0.145-0.491,0.306-0.641  c0.355-0.327,0.753-0.787,1.164-0.822c0.333-0.027,0.844,0.413,1.045,0.773c0.462,0.831,0.793,1.736,1.158,2.619  c1.098,2.647,2.19,5.297,3.276,7.95c0.517,1.262,0.104,1.872-1.299,1.896C388.408,369.49,387.009,369.472,385.612,369.473z   M385.584,360.157c-1.026,2.496-1.951,4.745-2.883,7.012c1.977,0,3.824,0,5.783,0C387.52,364.837,386.6,362.612,385.584,360.157z"/>
<path fill-rule="evenodd" clip-rule="evenodd" d="M341.478,369.473c-1.438,0-2.877,0.025-4.314-0.007  c-1.313-0.029-1.713-0.67-1.213-1.867c1.411-3.383,2.8-6.774,4.265-10.134c0.223-0.511,0.854-1.253,1.198-1.203  c0.512,0.074,1.135,0.67,1.365,1.195c1.465,3.358,2.845,6.754,4.234,10.145c0.496,1.212,0.089,1.836-1.22,1.864  C344.354,369.497,342.916,369.473,341.478,369.473z M338.586,367.187c1.985,0,3.835,0,5.82,0c-0.978-2.348-1.914-4.595-2.915-6.999  C340.491,362.599,339.554,364.856,338.586,367.187z"/>
<path fill-rule="evenodd" clip-rule="evenodd" d="M433.854,360.859c0,0.958,0.02,1.917-0.002,2.875  c-0.076,3.317-2.627,5.783-5.92,5.738c-3.174-0.043-5.635-2.616-5.639-5.901c-0.004-1.877,0.01-3.754-0.008-5.631  c-0.008-0.852,0.037-1.731,1.127-1.745c1.172-0.015,1.201,0.921,1.197,1.805c-0.008,1.876-0.023,3.754,0.004,5.63  c0.033,2.137,1.484,3.619,3.48,3.609c2.01-0.01,3.428-1.486,3.451-3.643c0.023-1.917,0.006-3.834,0.002-5.751  c-0.002-0.807,0.092-1.624,1.109-1.653c1.102-0.031,1.211,0.806,1.201,1.672C433.844,358.862,433.854,359.86,433.854,360.859z"/>
<path fill-rule="evenodd" clip-rule="evenodd" d="M408.184,356.138c0.798,0,1.635-0.146,2.38,0.053  c0.474,0.126,0.812,0.764,1.211,1.172c-0.428,0.332-0.827,0.898-1.288,0.953c-1.455,0.173-2.962-0.004-4.397,0.247  c-2.448,0.427-3.692,2.24-3.52,4.759c0.144,2.096,1.869,3.754,4.146,3.896c1.193,0.074,2.396,0.042,3.593,0.023  c0.781-0.012,1.406,0.247,1.443,1.074c0.042,0.946-0.676,1.158-1.471,1.158c-1.277,0.001-2.558,0.041-3.833-0.014  c-3.311-0.143-6.151-3.113-6.2-6.436c-0.053-3.533,2.63-6.582,6.022-6.837c0.637-0.048,1.275-0.067,1.912-0.1  C408.183,356.104,408.183,356.121,408.184,356.138z"/>
<path fill-rule="evenodd" clip-rule="evenodd" d="M293.963,308.911c0.744,0.031,1.619,0.928,1.62,1.659  c0.001,0.772-0.967,1.697-1.743,1.665c-0.734-0.03-1.615-0.937-1.619-1.667C292.218,309.785,293.172,308.877,293.963,308.911z"/>
<path fill-rule="evenodd" clip-rule="evenodd" d="M309.215,310.534c0.019,0.828-0.853,1.719-1.666,1.702  c-0.743-0.015-1.611-0.88-1.636-1.632c-0.027-0.803,0.871-1.706,1.682-1.692C308.376,308.926,309.197,309.747,309.215,310.534z"/>
<path fill-rule="evenodd" clip-rule="evenodd" d="M362.385,375.498c10.888,0,21.776,0,32.664,0c0,0.069,0.001,0.139,0.001,0.207  c-10.891,0-21.782,0-32.673,0C362.38,375.637,362.382,375.567,362.385,375.498z"/>
<path fill-rule="evenodd" clip-rule="evenodd" d="M466.703,362.158c-0.746,0-1.494,0.022-2.24-0.007  c-0.557-0.022-1.273,0.186-1.295-0.784c-0.018-0.845,0.35-1.39,1.176-1.543c0.424-0.079,0.9,0.065,1.305-0.054  c0.363-0.108,0.662-0.438,0.99-0.671c-0.307-0.308-0.572-0.814-0.926-0.883c-0.715-0.14-1.477-0.042-2.219-0.042  c0-0.101,0-0.202,0-0.303c0.813,0,1.652-0.123,2.426,0.048c0.432,0.096,1.1,0.736,1.051,1.03c-0.076,0.462-0.598,0.979-1.063,1.21  c-0.42,0.208-1.059-0.056-1.518,0.115c-0.342,0.127-0.551,0.615-0.818,0.942c0.277,0.206,0.539,0.555,0.836,0.589  c0.738,0.086,1.492,0.028,2.24,0.028C466.666,361.943,466.686,362.051,466.703,362.158z"/>
<path fill-rule="evenodd" clip-rule="evenodd" d="M478.061,368.196c2.049-0.008,2.322,0.33,1.955,1.957  c-0.037,0.166,0.029,0.372,0.092,0.543c0.365,0.991,0.047,1.657-0.961,1.764c-0.617,0.065-1.289,0.03-1.871-0.158  c-0.322-0.104-0.781-0.84-0.719-0.916c0.748-0.918-0.811-2.34,0.666-3.023C477.568,368.202,477.99,368.209,478.061,368.196z   M478.414,370.171c-0.617,0.467-1.387,0.766-1.42,1.131c-0.074,0.816,0.701,0.902,1.367,0.888c0.67-0.015,1.539,0.06,1.455-0.895  C479.785,370.933,479.021,370.634,478.414,370.171z M478.406,370.521c0.613-0.477,1.375-0.781,1.41-1.154  c0.086-0.897-0.754-0.817-1.389-0.826c-0.648-0.009-1.465-0.038-1.434,0.811C477.008,369.707,477.789,370.034,478.406,370.521z"/>
<path fill-rule="evenodd" clip-rule="evenodd" d="M481.051,359.962c0.025,1.099-1.07,2.165-2.254,2.193s-2.277-0.985-2.295-2.126  c-0.016-1.167,1-2.156,2.23-2.171C479.936,357.844,481.025,358.833,481.051,359.962z M480.625,360.009  c0.008-0.941-0.877-1.826-1.848-1.845c-0.916-0.018-1.895,0.917-1.906,1.818c-0.01,0.901,0.936,1.824,1.879,1.835  C479.73,361.827,480.615,360.974,480.625,360.009z"/>
<path fill-rule="evenodd" clip-rule="evenodd" d="M360.107,361.643c0-1.227,0-2.175,0-3.263c1.845,0,3.662-0.083,5.467,0.035  c0.897,0.059,1.532,0.732,1.443,1.731c-0.086,0.964-0.673,1.495-1.673,1.496C363.609,361.645,361.875,361.643,360.107,361.643z"/>
<path fill-rule="evenodd" clip-rule="evenodd" d="M360.135,367.242c0-1.141,0-2.152,0-3.271c1.842,0,3.625-0.053,5.403,0.021  c0.969,0.04,1.524,0.709,1.48,1.68c-0.044,0.977-0.683,1.53-1.636,1.557C363.676,367.276,361.969,367.242,360.135,367.242z"/>
<path fill-rule="evenodd" clip-rule="evenodd" d="M385.584,360.157c1.016,2.455,1.936,4.68,2.9,7.012c-1.959,0-3.807,0-5.783,0  C383.633,364.902,384.558,362.653,385.584,360.157z"/>
<path fill-rule="evenodd" clip-rule="evenodd" d="M338.586,367.187c0.967-2.33,1.904-4.588,2.905-6.999  c1.001,2.404,1.937,4.651,2.915,6.999C342.421,367.187,340.572,367.187,338.586,367.187z"/>
<path fill-rule="evenodd" clip-rule="evenodd" d="M478.414,370.171c0.607,0.463,1.371,0.762,1.402,1.124  c0.084,0.954-0.785,0.88-1.455,0.895c-0.666,0.015-1.441-0.071-1.367-0.888C477.027,370.937,477.797,370.638,478.414,370.171z"/>
<path fill-rule="evenodd" clip-rule="evenodd" d="M478.406,370.521c-0.617-0.486-1.398-0.813-1.412-1.17  c-0.031-0.849,0.785-0.819,1.434-0.811c0.635,0.009,1.475-0.071,1.389,0.826C479.781,369.739,479.02,370.044,478.406,370.521z"/>
<path fill-rule="evenodd" clip-rule="evenodd" d="M480.625,360.009c-0.01,0.965-0.895,1.818-1.875,1.809  c-0.943-0.011-1.889-0.934-1.879-1.835c0.012-0.901,0.99-1.836,1.906-1.818C479.748,358.183,480.633,359.067,480.625,360.009z"/>
<style>
 .icon{
    fill-opacity: 0;
    stroke: #432306;
    stroke-width: 1.5;
    stroke-dasharray: 100;
    stroke-dashoffset: 500;
    animation: 5s linear 0s infinite draw alternate;
}

@keyframes draw {
    to {
      fill-opacity: 0;
      stroke-dasharray: 100;
      stroke-dashoffset: 200;
      stroke-width:1.5;
    }
}
</style>
</svg>